<?xml version="1.0" standalone="no"?>
<!DOCTYPE svg PUBLIC "-//W3C//DTD SVG 20010904//EN"
 "http://www.w3.org/TR/2001/REC-SVG-20010904/DTD/svg10.dtd">
<svg version="1.0" xmlns="http://www.w3.org/2000/svg"
 width="2000.000000pt" height="2000.000000pt" viewBox="0 0 2000.000000 2000.000000"
 preserveAspectRatio="xMidYMid meet">

<g transform="translate(0.000000,2000.000000) scale(0.100000,-0.100000)"
fill="#000000" stroke="none">
<path d="M11876 18659 c-193 -22 -415 -89 -610 -182 -573 -277 -976 -817
-1076 -1442 -41 -264 -34 -497 25 -771 l7 -31 -164 -7 c-89 -3 -275 -8 -413
-11 -137 -3 -421 -10 -630 -15 -1389 -34 -1392 -34 -1435 -15 -28 13 -51 16
-80 11 l-40 -6 0 100 c0 60 -4 100 -10 100 -6 0 -10 -45 -10 -115 l0 -115
-162 0 c-90 0 -173 -3 -184 -6 -20 -5 -22 -1 -29 96 -3 56 -8 100 -10 98 -2
-2 -5 -46 -7 -98 l-3 -95 -70 -3 c-39 -1 -540 -13 -1115 -27 -825 -20 -1058
-28 -1109 -40 -87 -21 -225 -94 -307 -163 -202 -169 -338 -424 -351 -655 -5
-90 -3 -115 20 -202 22 -85 227 -821 423 -1514 l54 -193 -102 -122 c-224 -265
-283 -331 -295 -330 -6 1 -42 22 -80 47 -402 266 -1253 810 -1259 804 -5 -4
140 -102 594 -401 l313 -206 -34 -43 c-98 -122 -487 -690 -487 -712 0 -6 7
-20 16 -31 14 -18 15 -18 4 4 -9 18 -8 28 2 42 7 10 63 88 124 174 62 85 172
245 245 355 74 110 138 200 142 201 5 0 48 -27 95 -59 112 -76 321 -211 332
-214 4 -1 72 75 150 168 78 94 148 177 156 185 13 13 18 11 47 -20 17 -19 51
-56 74 -81 42 -45 44 -50 133 -370 49 -178 99 -353 110 -389 22 -73 173 -605
280 -990 39 -140 73 -262 75 -270 4 -13 -166 -15 -1503 -12 -1071 2 -1518 0
-1545 -8 -27 -8 -42 -20 -53 -44 -15 -30 -14 -42 16 -187 18 -85 33 -155 34
-156 1 -1 710 4 1576 12 865 8 1577 12 1581 10 3 -3 12 -26 18 -52 7 -27 45
-165 86 -308 283 -1005 664 -2358 796 -2830 50 -176 123 -437 164 -580 40
-143 96 -341 124 -440 227 -809 416 -1482 542 -1930 82 -291 220 -780 305
-1085 85 -305 171 -602 190 -660 139 -419 456 -698 914 -807 179 -42 314 -41
1255 11 457 25 1087 59 1400 76 314 16 598 32 633 36 l62 6 0 46 c0 26 4 42 8
35 4 -7 6 20 4 60 -2 40 -6 74 -8 76 -1 2 -74 -2 -161 -8 -196 -14 -880 -57
-1841 -116 -970 -60 -1122 -59 -1352 9 -328 96 -494 234 -645 534 -101 203
-83 142 -495 1642 -60 217 -212 771 -339 1230 -253 920 -534 1941 -701 2550
-97 354 -185 672 -506 1840 -53 190 -101 368 -109 395 -7 28 -45 165 -83 305
-39 140 -120 435 -181 655 -60 220 -153 558 -206 750 -128 466 -430 1566 -448
1635 -8 30 -63 231 -122 445 -117 425 -117 426 -198 725 -31 113 -79 288 -107
390 -27 101 -49 188 -47 193 3 10 42 -129 322 -1138 53 -192 126 -456 162
-585 36 -129 91 -329 123 -445 32 -115 167 -604 300 -1085 132 -481 288 -1044
345 -1250 57 -206 158 -573 225 -815 66 -242 139 -503 160 -580 21 -77 64
-230 94 -340 61 -223 346 -1254 492 -1785 52 -190 120 -435 150 -545 30 -110
66 -238 79 -285 31 -109 128 -462 250 -905 53 -192 107 -388 120 -435 13 -47
55 -200 94 -340 339 -1238 516 -1871 544 -1955 92 -271 219 -479 362 -597 72
-59 228 -137 345 -172 256 -76 368 -79 1215 -27 369 22 706 43 750 46 290 19
1194 71 1365 78 l55 2 0 140 c0 154 13 207 65 253 36 32 99 50 111 31 5 -9 9
40 9 129 l0 143 63 -7 c34 -3 321 -29 637 -58 l575 -51 4 -55 c1 -30 6 -48 10
-39 5 14 48 -9 238 -124 178 -107 230 -143 222 -153 -7 -8 -6 -14 2 -20 7 -4
9 -3 5 4 -3 6 -2 14 4 17 12 7 150 -72 150 -86 0 -5 8 -5 18 0 9 5 109 15 222
21 113 6 315 17 450 25 135 8 268 14 295 14 28 -1 -172 -16 -443 -34 -271 -18
-495 -35 -498 -38 -3 -3 15 -18 41 -33 33 -19 43 -29 34 -35 -8 -5 -1 -7 19
-7 20 1 41 -7 55 -20 13 -12 26 -22 29 -22 4 0 44 -22 90 -49 l83 -48 132 8
c162 10 246 29 339 75 221 109 367 329 381 574 7 132 2 158 -147 660 -15 52
-46 158 -69 235 -22 77 -78 271 -125 430 -46 160 -171 587 -276 950 -647 2224
-694 2384 -700 2380 -4 -3 -10 -44 -14 -92 -3 -48 -8 -101 -10 -118 -3 -16 -8
-73 -11 -125 -4 -52 -8 -108 -10 -125 -3 -16 -7 -91 -11 -165 l-6 -135 396
-1386 c350 -1227 396 -1394 396 -1456 0 -157 -86 -292 -229 -360 -65 -30 -139
-37 -513 -48 -135 -4 -251 -11 -257 -14 -6 -4 -15 -82 -22 -187 -6 -101 -16
-182 -22 -186 -6 -3 -17 -5 -26 -3 -9 1 -420 6 -915 10 l-899 7 5 145 c3 79 2
145 -1 148 -4 2 -85 -1 -181 -6 -96 -5 -483 -20 -860 -34 -377 -14 -923 -34
-1215 -46 -736 -28 -780 -28 -885 1 -133 37 -258 128 -352 256 -58 79 -72 118
-152 414 -37 135 -98 358 -137 495 -109 392 -111 398 -119 430 -4 17 -31 113
-60 215 -29 102 -63 223 -75 270 -13 47 -60 216 -105 375 -44 160 -110 396
-146 525 -172 615 -190 680 -353 1255 -27 94 -65 222 -84 285 -44 144 -117
406 -203 727 -111 420 -130 490 -199 733 -36 129 -114 404 -172 610 -58 206
-117 418 -132 470 l-27 95 -47 7 c-87 12 -151 79 -151 157 1 46 40 141 66 157
7 4 -15 13 -51 20 -131 27 -190 122 -145 230 9 22 25 51 36 67 11 15 16 27 12
27 -5 0 -3 5 4 12 19 19 15 23 -28 25 -53 3 -113 35 -142 75 -18 25 -23 46
-22 88 0 70 28 124 100 198 30 31 54 59 54 63 0 10 -98 363 -335 1214 -103
369 -202 724 -220 790 -19 66 -83 298 -144 515 -60 217 -148 534 -195 703 -47
170 -86 318 -86 330 0 39 40 106 78 129 33 21 51 23 172 26 224 4 3147 42
3262 42 l107 0 -88 -172 c-188 -371 -292 -706 -322 -1047 -19 -208 11 -431 86
-641 29 -79 108 -243 149 -308 l24 -39 196 -13 c108 -7 198 -11 200 -9 3 3
129 726 158 910 l11 65 -53 50 c-28 27 -66 76 -84 109 -30 58 -31 65 -31 180
0 113 2 123 30 178 56 112 148 182 252 193 81 9 157 -14 214 -65 l44 -39 89
45 c255 128 499 325 678 548 75 94 200 281 238 355 17 34 37 63 45 66 23 9
213 -91 307 -161 151 -114 250 -242 306 -397 23 -64 26 -88 26 -193 0 -101 -6
-145 -37 -283 -126 -559 -232 -904 -324 -1060 -50 -85 -132 -174 -205 -224
-33 -22 -119 -67 -192 -100 -196 -88 -246 -149 -280 -347 l-13 -76 56 -26
c134 -61 243 -101 252 -92 6 6 53 -13 127 -50 64 -33 119 -63 122 -67 3 -3 41
-26 85 -49 45 -24 121 -71 170 -107 164 -116 230 -186 400 -421 88 -120 160
-220 162 -222 4 -6 97 58 198 136 182 142 387 356 512 535 41 58 43 60 51 37
5 -13 56 -189 113 -391 57 -203 106 -368 109 -368 4 0 39 79 80 177 l73 176
-38 131 c-20 72 -82 284 -136 470 -55 187 -99 345 -99 353 0 9 14 13 44 13
l44 0 7 78 c4 42 8 94 9 115 l1 39 -94 27 c-52 15 -98 34 -103 42 -8 13 -80
260 -263 894 -47 165 -93 320 -100 344 l-14 43 42 -6 c23 -3 116 -8 207 -10
137 -4 154 -3 100 6 -70 11 -285 62 -337 80 -32 12 -51 47 -37 71 4 7 3 9 -1
4 -11 -9 -38 91 -28 105 3 6 1 8 -5 4 -13 -8 -27 48 -16 65 4 7 3 9 -3 6 -7
-4 -16 14 -24 46 -6 28 -22 83 -35 120 -13 37 -21 74 -17 82 3 8 1 15 -5 15
-15 0 -24 62 -11 74 9 8 10 7 4 -3 -5 -9 -3 -12 5 -9 7 2 14 12 16 21 3 20 -1
21 -25 8 -18 -10 -22 -2 -106 269 -67 215 -190 353 -398 450 -67 30 -105 41
-195 52 -69 9 -133 11 -165 7 -28 -4 -97 -8 -152 -8 l-101 -1 -13 59 c-7 32
-10 69 -6 82 5 19 4 21 -4 9 -9 -12 -11 -9 -11 15 -1 17 -4 64 -8 105 -9 97
-9 323 0 425 8 87 38 250 57 305 6 19 24 74 40 122 15 48 31 85 35 81 3 -3 6
3 6 13 0 20 33 97 67 159 9 17 29 55 46 85 16 30 32 57 36 60 3 3 26 34 50 70
132 194 320 377 539 527 18 13 40 23 48 23 8 0 13 4 9 9 -3 5 4 12 15 16 11 3
26 12 33 18 14 13 132 73 212 108 65 28 256 88 320 100 28 5 82 15 120 23 l70
14 -100 0 c-55 -1 -131 -4 -169 -9z m-4331 -2489 c-28 -12 -57 -12 -50 0 3 6
21 10 38 9 27 0 29 -2 12 -9z m1327 -356 c-68 -65 -82 -73 -117 -74 -22 -1
-452 -14 -955 -29 -583 -17 -923 -24 -936 -18 -22 9 -44 46 -44 72 0 8 11 26
23 41 l24 27 939 28 c516 16 980 29 1029 31 50 2 96 1 102 0 7 -2 -22 -37 -65
-78z m-4615 -176 c-3 -8 -6 -5 -6 6 -1 11 2 17 5 13 3 -3 4 -12 1 -19z m22
-68 c0 -9 -4 -8 -9 5 -5 11 -9 27 -9 35 0 9 4 8 9 -5 5 -11 9 -27 9 -35z
m7386 -1258 c108 -381 195 -696 192 -699 -18 -18 -301 174 -418 283 -150 141
-254 304 -266 415 -7 70 15 122 110 262 104 152 153 263 171 390 4 27 9 47 11
45 1 -1 91 -315 200 -696z m-7041 -1081 c15 -51 25 -95 23 -97 -2 -2 -29 23
-61 55 l-59 59 34 40 c19 22 34 40 35 39 1 -1 14 -44 28 -96z m7263 45 l81
-31 30 -100 c16 -55 28 -102 26 -104 -5 -6 -97 66 -135 106 -36 38 -56 66 -99
137 -22 36 -22 39 -4 31 10 -4 56 -22 101 -39z m-9383 -2335 c24 -25 27 -35
22 -65 -12 -64 -82 -87 -130 -43 -38 34 -38 75 -1 112 33 34 74 33 109 -4z
m225 5 c34 -36 33 -92 -3 -122 -46 -40 -103 -29 -131 27 -43 82 71 163 134 95z
m213 10 c56 -42 36 -136 -32 -151 -82 -18 -135 81 -77 143 23 25 81 30 109 8z
m12071 -8383 c-7 -2 -19 -2 -25 0 -7 3 -2 5 12 5 14 0 19 -2 13 -5z"/>
<path d="M2448 10943 c7 -3 16 -2 19 1 4 3 -2 6 -13 5 -11 0 -14 -3 -6 -6z"/>
<path d="M2395 10901 c5 -16 4 -21 -4 -17 -7 4 -9 1 -5 -8 5 -12 10 -13 26 -5
15 8 17 13 8 19 -7 4 -17 14 -22 21 -6 10 -7 7 -3 -10z"/>
<path d="M2465 10839 c-28 -19 -28 -20 -5 -14 27 8 46 22 39 29 -3 3 -18 -4
-34 -15z"/>
<path d="M14527 18495 c-162 -126 -187 -149 -191 -178 -3 -17 -10 -97 -16
-177 -9 -116 -15 -148 -28 -158 -9 -7 -87 -57 -172 -109 -85 -53 -166 -103
-180 -112 -14 -8 -28 -14 -32 -13 -5 1 -8 -2 -8 -8 0 -5 -7 -6 -17 -3 -11 4
-14 3 -9 -5 4 -7 -3 -14 -19 -18 -13 -3 -23 -10 -20 -14 7 -12 -135 -91 -147
-83 -7 3 -8 1 -4 -5 8 -14 -30 -36 -46 -26 -7 4 -8 3 -4 -4 4 -6 -4 -16 -16
-23 -13 -6 -34 -21 -48 -34 -14 -12 -78 -55 -143 -96 -65 -41 -154 -96 -197
-124 -83 -52 -181 -109 -190 -110 -3 0 -12 -6 -20 -13 -8 -7 -51 -36 -95 -64
-44 -28 -97 -62 -117 -76 -33 -21 -40 -23 -55 -11 -11 9 -14 10 -9 2 9 -16 1
-16 -26 -2 -13 7 -23 8 -30 1 -7 -7 -3 -14 12 -22 12 -7 20 -8 16 -2 -3 6 5 9
19 8 l24 -1 -27 -22 c-15 -13 -109 -74 -209 -137 l-183 -115 -16 56 c-9 30
-14 70 -12 89 2 20 0 30 -5 25 -5 -5 -9 -35 -8 -67 1 -105 63 -196 158 -230
43 -15 131 -18 151 -5 8 5 -11 8 -48 9 -61 1 -150 33 -157 57 -2 6 72 58 165
116 181 116 213 134 225 131 4 -1 7 2 7 8 0 5 6 10 14 10 7 0 19 6 25 14 7 8
26 13 46 12 19 -2 32 1 29 6 -3 5 -14 6 -25 3 -35 -11 -20 3 55 49 76 47 92
54 80 34 -4 -7 -3 -8 5 -4 6 4 9 11 6 16 -7 11 63 55 90 56 11 1 23 -2 26 -7
3 -5 13 -1 23 10 12 13 14 21 6 26 -6 3 -9 1 -8 -6 2 -6 -3 -14 -11 -17 -9 -3
-11 0 -6 8 6 9 2 9 -16 0 -71 -37 77 67 266 185 141 89 284 175 290 175 2 0
39 24 82 54 131 90 244 157 255 150 6 -4 8 -2 5 3 -4 6 0 16 7 22 40 33 299
191 314 191 9 0 101 -30 204 -66 116 -40 193 -62 201 -57 8 4 93 66 191 138
l176 129 -177 54 c-98 29 -181 57 -186 61 -4 4 22 26 58 49 69 44 85 65 68 91
-16 24 -45 16 -123 -34 l-71 -45 6 187 c4 104 8 194 10 201 3 6 3 12 2 12 -2
0 -87 -65 -190 -145z"/>
<path d="M12373 18597 c0 -8 6 -14 14 -14 9 0 10 4 2 14 -6 7 -12 13 -14 13
-1 0 -2 -6 -2 -13z"/>
<path d="M12780 18596 c0 -2 8 -10 18 -17 15 -13 16 -12 3 4 -13 16 -21 21
-21 13z"/>
<path d="M12405 18550 c-3 -6 1 -7 9 -4 18 7 21 14 7 14 -6 0 -13 -4 -16 -10z"/>
<path d="M12210 18541 c0 -7 -5 -9 -12 -5 -7 5 -8 3 -3 -5 5 -9 10 -10 18 -2
6 6 8 14 4 18 -4 3 -7 1 -7 -6z"/>
<path d="M12295 18530 c-3 -5 -1 -10 4 -10 6 0 11 5 11 10 0 6 -2 10 -4 10 -3
0 -8 -4 -11 -10z"/>
<path d="M12401 18513 c7 -12 15 -20 18 -17 3 2 -3 12 -13 22 -17 16 -18 16
-5 -5z"/>
<path d="M12451 18514 c0 -11 3 -14 6 -6 3 7 2 16 -1 19 -3 4 -6 -2 -5 -13z"/>
<path d="M12182 18494 c-7 -8 -8 -14 -3 -14 10 0 25 19 20 25 -2 1 -10 -3 -17
-11z"/>
<path d="M12730 18490 c0 -5 9 -14 20 -20 11 -6 20 -9 20 -8 0 2 -9 11 -20 21
-11 9 -20 13 -20 7z"/>
<path d="M12376 18475 c4 -8 8 -15 10 -15 2 0 4 7 4 15 0 8 -4 15 -10 15 -5 0
-7 -7 -4 -15z"/>
<path d="M12655 18480 c3 -5 8 -10 11 -10 2 0 4 5 4 10 0 6 -5 10 -11 10 -5 0
-7 -4 -4 -10z"/>
<path d="M12110 18470 c0 -5 5 -10 11 -10 5 0 7 5 4 10 -3 6 -8 10 -11 10 -2
0 -4 -4 -4 -10z"/>
<path d="M12302 18458 c-7 -7 -12 -19 -11 -27 0 -10 4 -7 9 7 5 12 14 22 20
22 6 0 15 -10 20 -22 5 -13 9 -18 9 -11 2 37 -24 54 -47 31z"/>
<path d="M11695 18451 c-3 -5 -2 -12 3 -15 5 -3 9 1 9 9 0 17 -3 19 -12 6z"/>
<path d="M11756 18448 c3 -5 10 -6 15 -3 13 9 11 12 -6 12 -8 0 -12 -4 -9 -9z"/>
<path d="M11787 18446 c-4 -10 -1 -13 8 -9 8 3 12 9 9 14 -7 12 -11 11 -17 -5z"/>
<path d="M12010 18450 c0 -5 5 -10 11 -10 5 0 7 5 4 10 -3 6 -8 10 -11 10 -2
0 -4 -4 -4 -10z"/>
<path d="M12185 18450 c3 -5 8 -10 11 -10 2 0 4 5 4 10 0 6 -5 10 -11 10 -5 0
-7 -4 -4 -10z"/>
<path d="M12600 18449 c0 -5 5 -7 10 -4 6 3 10 8 10 11 0 2 -4 4 -10 4 -5 0
-10 -5 -10 -11z"/>
<path d="M12254 18435 c-3 -8 -4 -20 -2 -27 3 -7 7 -1 10 15 6 29 1 36 -8 12z"/>
<path d="M12430 18430 c0 -11 2 -20 4 -20 2 0 6 9 9 20 3 11 1 20 -4 20 -5 0
-9 -9 -9 -20z"/>
<path d="M12864 18439 c-3 -6 -3 -13 0 -16 3 -4 6 0 6 8 1 10 5 8 15 -5 12
-16 15 -17 15 -4 0 19 -27 31 -36 17z"/>
<path d="M11936 18431 c-3 -5 1 -14 9 -21 10 -9 15 -9 15 -1 0 6 -5 11 -11 11
-5 0 -7 5 -4 10 3 6 4 10 1 10 -3 0 -7 -4 -10 -9z"/>
<path d="M11653 18415 c0 -8 4 -12 9 -9 5 3 6 10 3 15 -9 13 -12 11 -12 -6z"/>
<path d="M11995 18420 c3 -5 8 -10 11 -10 2 0 4 5 4 10 0 6 -5 10 -11 10 -5 0
-7 -4 -4 -10z"/>
<path d="M12142 18414 c-7 -8 -8 -14 -3 -14 10 0 25 19 20 25 -2 1 -10 -3 -17
-11z"/>
<path d="M12092 18404 c10 -10 20 -16 22 -13 3 3 -5 11 -17 18 -21 13 -21 12
-5 -5z"/>
<path d="M12610 18410 c-9 -6 -10 -10 -3 -10 6 0 15 5 18 10 8 12 4 12 -15 0z"/>
<path d="M12650 18411 c0 -6 4 -13 10 -16 6 -3 7 1 4 9 -7 18 -14 21 -14 7z"/>
<path d="M11880 18400 c0 -6 4 -9 9 -5 5 3 12 -2 14 -10 4 -12 5 -12 3 1 -1
19 -26 32 -26 14z"/>
<path d="M12787 18396 c-10 -8 -14 -16 -10 -19 5 -3 14 3 21 14 14 22 13 23
-11 5z"/>
<path d="M13100 18390 c-9 -6 -10 -10 -3 -10 6 0 15 5 18 10 8 12 4 12 -15 0z"/>
<path d="M13305 18390 c-3 -6 1 -7 9 -4 18 7 21 14 7 14 -6 0 -13 -4 -16 -10z"/>
<path d="M12688 18383 c7 -3 16 -2 19 1 4 3 -2 6 -13 5 -11 0 -14 -3 -6 -6z"/>
<path d="M12542 18360 c0 -14 2 -19 5 -12 2 6 2 18 0 25 -3 6 -5 1 -5 -13z"/>
<path d="M12731 18364 c0 -11 3 -14 6 -6 3 7 2 16 -1 19 -3 4 -6 -2 -5 -13z"/>
<path d="M13170 18371 c0 -18 12 -41 22 -41 7 0 6 5 -1 13 -6 8 -8 16 -5 19 3
3 1 9 -5 13 -6 3 -11 2 -11 -4z"/>
<path d="M11566 18355 c-3 -8 -1 -15 4 -15 6 0 10 7 10 15 0 8 -2 15 -4 15 -2
0 -6 -7 -10 -15z"/>
<path d="M12860 18349 c-7 -11 -10 -23 -7 -25 2 -2 9 7 15 21 14 30 7 33 -8 4z"/>
<path d="M12974 18359 c-3 -6 -15 -8 -26 -6 -16 4 -17 3 -7 -9 15 -19 22 -18
37 6 7 11 10 20 8 20 -3 0 -8 -5 -12 -11z"/>
<path d="M13110 18366 c0 -2 11 -6 25 -8 13 -3 22 -1 19 3 -5 9 -44 13 -44 5z"/>
<path d="M11513 18353 c4 -3 1 -13 -6 -22 -11 -14 -10 -14 5 -2 16 12 16 31 1
31 -4 0 -3 -3 0 -7z"/>
<path d="M11712 18344 c-7 -8 -8 -14 -3 -14 10 0 25 19 20 25 -2 1 -10 -3 -17
-11z"/>
<path d="M11844 18341 c0 -11 5 -17 13 -14 10 4 11 9 2 19 -15 18 -15 18 -15
-5z"/>
<path d="M12135 18351 c-3 -5 -1 -12 5 -16 5 -3 10 1 10 9 0 18 -6 21 -15 7z"/>
<path d="M11901 18334 c0 -11 3 -14 6 -6 3 7 2 16 -1 19 -3 4 -6 -2 -5 -13z"/>
<path d="M12570 18335 c0 -8 2 -15 4 -15 2 0 6 7 10 15 3 8 1 15 -4 15 -6 0
-10 -7 -10 -15z"/>
<path d="M12758 18343 c7 -3 16 -2 19 1 4 3 -2 6 -13 5 -11 0 -14 -3 -6 -6z"/>
<path d="M12799 18327 c11 -14 11 -17 1 -17 -8 0 -11 -3 -7 -6 3 -3 12 -2 21
3 13 7 12 11 -7 22 -20 13 -21 13 -8 -2z"/>
<path d="M11366 18305 c8 -37 14 -45 14 -19 0 10 -5 26 -10 34 -8 11 -9 7 -4
-15z"/>
<path d="M11397 18309 c4 -13 8 -18 11 -10 2 7 -1 18 -6 23 -8 8 -9 4 -5 -13z"/>
<path d="M13142 18320 c4 -19 18 -34 45 -48 17 -10 21 -9 19 3 -1 8 -6 18 -11
22 -4 4 -5 2 -1 -4 13 -24 -8 -13 -31 15 -13 15 -22 20 -21 12z"/>
<path d="M12895 18300 c-3 -5 -1 -10 4 -10 6 0 11 5 11 10 0 6 -2 10 -4 10 -3
0 -8 -4 -11 -10z"/>
<path d="M13028 18303 c7 -3 16 -2 19 1 4 3 -2 6 -13 5 -11 0 -14 -3 -6 -6z"/>
<path d="M11420 18280 c0 -5 5 -10 11 -10 5 0 7 5 4 10 -3 6 -8 10 -11 10 -2
0 -4 -4 -4 -10z"/>
<path d="M13250 18280 c0 -5 7 -7 15 -4 8 4 15 8 15 10 0 2 -7 4 -15 4 -8 0
-15 -4 -15 -10z"/>
<path d="M12980 18276 c0 -2 7 -7 16 -10 8 -3 12 -2 9 4 -6 10 -25 14 -25 6z"/>
<path d="M12798 18253 c7 -3 16 -2 19 1 4 3 -2 6 -13 5 -11 0 -14 -3 -6 -6z"/>
<path d="M13028 18253 c7 -3 16 -2 19 1 4 3 -2 6 -13 5 -11 0 -14 -3 -6 -6z"/>
<path d="M13085 18250 c3 -5 8 -10 11 -10 2 0 4 5 4 10 0 6 -5 10 -11 10 -5 0
-7 -4 -4 -10z"/>
<path d="M13305 18240 c-4 -6 -11 -7 -17 -4 -7 4 -8 2 -4 -5 6 -9 11 -9 22 0
14 11 18 19 10 19 -3 0 -8 -5 -11 -10z"/>
<path d="M13287 18195 c-4 -8 -11 -15 -17 -15 -6 0 -8 5 -4 12 5 7 3 8 -5 3
-9 -5 -10 -10 -2 -18 8 -8 16 -6 28 6 9 9 14 19 11 22 -3 3 -8 -1 -11 -10z"/>
<path d="M13210 18186 c0 -2 7 -9 15 -16 13 -11 14 -10 9 4 -5 14 -24 23 -24
12z"/>
<path d="M13320 18170 c-9 -6 -10 -10 -3 -10 6 0 15 5 18 10 8 12 4 12 -15 0z"/>
<path d="M13420 18161 c0 -6 4 -13 10 -16 6 -3 7 1 4 9 -7 18 -14 21 -14 7z"/>
<path d="M12113 18153 c-47 -6 -41 -19 7 -15 22 2 40 8 40 13 0 5 -3 8 -7 7
-5 0 -23 -3 -40 -5z"/>
<path d="M12188 18143 c7 -3 16 -2 19 1 4 3 -2 6 -13 5 -11 0 -14 -3 -6 -6z"/>
<path d="M12628 18143 c12 -2 30 -2 40 0 9 3 -1 5 -23 4 -22 0 -30 -2 -17 -4z"/>
<path d="M12758 18143 c7 -3 16 -2 19 1 4 3 -2 6 -13 5 -11 0 -14 -3 -6 -6z"/>
<path d="M12710 18130 c-8 -5 -10 -10 -5 -10 6 0 17 5 25 10 8 5 11 10 5 10
-5 0 -17 -5 -25 -10z"/>
<path d="M13311 18124 c0 -11 3 -14 6 -6 3 7 2 16 -1 19 -3 4 -6 -2 -5 -13z"/>
<path d="M11948 18123 c7 -3 16 -2 19 1 4 3 -2 6 -13 5 -11 0 -14 -3 -6 -6z"/>
<path d="M12038 18123 c7 -3 16 -2 19 1 4 3 -2 6 -13 5 -11 0 -14 -3 -6 -6z"/>
<path d="M11995 18110 c-3 -6 1 -7 9 -4 18 7 21 14 7 14 -6 0 -13 -4 -16 -10z"/>
<path d="M13230 18105 c0 -8 4 -15 10 -15 5 0 7 7 4 15 -4 8 -8 15 -10 15 -2
0 -4 -7 -4 -15z"/>
<path d="M13411 18093 c-7 -8 -11 -16 -8 -19 2 -2 10 2 17 11 17 20 9 27 -9 8z"/>
<path d="M13278 18093 c7 -3 16 -2 19 1 4 3 -2 6 -13 5 -11 0 -14 -3 -6 -6z"/>
<path d="M13533 18085 c0 -8 4 -12 9 -9 5 3 6 10 3 15 -9 13 -12 11 -12 -6z"/>
<path d="M12876 18068 c3 -4 15 -8 26 -8 12 0 18 3 14 7 -10 10 -46 11 -40 1z"/>
<path d="M13010 18069 c-14 -6 -38 -11 -54 -11 -26 -1 -27 -2 -11 -14 14 -11
24 -9 56 8 21 11 39 22 39 24 0 5 1 5 -30 -7z"/>
<path d="M13445 18060 c3 -5 8 -10 11 -10 2 0 4 5 4 10 0 6 -5 10 -11 10 -5 0
-7 -4 -4 -10z"/>
<path d="M11788 18053 c7 -3 16 -2 19 1 4 3 -2 6 -13 5 -11 0 -14 -3 -6 -6z"/>
<path d="M13555 18050 c6 -10 4 -12 -8 -7 -10 3 -17 2 -17 -3 0 -13 27 -13 35
-1 3 5 0 13 -6 17 -8 5 -9 3 -4 -6z"/>
<path d="M13320 18040 c0 -5 7 -7 15 -4 8 4 15 8 15 10 0 2 -7 4 -15 4 -8 0
-15 -4 -15 -10z"/>
<path d="M13376 18034 c-23 -23 -20 -30 4 -9 11 10 20 20 20 22 0 7 -9 2 -24
-13z"/>
<path d="M13475 18040 c3 -5 8 -10 11 -10 2 0 4 5 4 10 0 6 -5 10 -11 10 -5 0
-7 -4 -4 -10z"/>
<path d="M13023 18016 c-9 -11 -9 -15 0 -19 7 -3 14 3 14 14 2 22 2 22 -14 5z"/>
<path d="M13318 18013 c7 -3 16 -2 19 1 4 3 -2 6 -13 5 -11 0 -14 -3 -6 -6z"/>
<path d="M13416 18005 c-9 -26 -7 -32 5 -12 6 10 9 21 6 23 -2 3 -7 -2 -11
-11z"/>
<path d="M11631 17991 c-10 -6 -9 -10 3 -14 9 -4 16 -2 16 4 0 6 6 9 13 6 8
-3 19 -2 26 2 7 5 1 8 -16 9 -16 0 -35 -3 -42 -7z"/>
<path d="M13058 17993 c6 -2 10 -9 7 -14 -4 -5 1 -6 10 -2 13 5 14 7 3 14 -7
5 -17 8 -23 8 -5 0 -4 -3 3 -6z"/>
<path d="M13291 17984 c0 -11 3 -14 6 -6 3 7 2 16 -1 19 -3 4 -6 -2 -5 -13z"/>
<path d="M13570 17970 c-6 -11 -8 -20 -6 -20 3 0 10 9 16 20 6 11 8 20 6 20
-3 0 -10 -9 -16 -20z"/>
<path d="M11607 17969 c7 -7 15 -10 18 -7 3 3 -2 9 -12 12 -14 6 -15 5 -6 -5z"/>
<path d="M13422 17940 c0 -14 2 -19 5 -12 2 6 2 18 0 25 -3 6 -5 1 -5 -13z"/>
<path d="M10930 17930 c0 -5 5 -10 11 -10 5 0 7 5 4 10 -3 6 -8 10 -11 10 -2
0 -4 -4 -4 -10z"/>
<path d="M13556 17919 c4 -8 30 -6 38 2 3 3 -5 5 -19 5 -13 0 -22 -3 -19 -7z"/>
<path d="M13625 17920 c-3 -5 -1 -10 4 -10 6 0 11 5 11 10 0 6 -2 10 -4 10 -3
0 -8 -4 -11 -10z"/>
<path d="M11400 17910 c0 -5 5 -10 10 -10 6 0 10 5 10 10 0 6 -4 10 -10 10 -5
0 -10 -4 -10 -10z"/>
<path d="M11503 17898 c-18 -5 -33 -11 -33 -13 0 -2 15 -2 33 1 l32 6 -25 -22
c-20 -17 -21 -19 -4 -11 26 13 47 38 37 44 -4 2 -23 0 -40 -5z"/>
<path d="M13195 17898 c11 -6 27 -16 35 -22 9 -6 5 -1 -8 12 -13 12 -28 22
-35 22 -7 0 -3 -6 8 -12z"/>
<path d="M13466 17895 c-7 -19 3 -45 16 -45 6 0 5 6 -2 15 -10 12 -10 18 0 30
7 9 8 15 2 15 -5 0 -12 -7 -16 -15z"/>
<path d="M13606 17899 c4 -6 0 -15 -7 -20 -7 -4 -11 -10 -8 -14 3 -3 13 3 23
14 15 17 15 19 1 25 -10 4 -14 2 -9 -5z"/>
<path d="M13250 17892 c0 -7 5 -12 11 -12 6 0 8 -7 4 -17 -5 -15 -4 -16 6 -5
11 10 10 15 -4 29 -11 11 -17 13 -17 5z"/>
<path d="M13760 17881 c0 -6 4 -13 10 -16 6 -3 7 1 4 9 -7 18 -14 21 -14 7z"/>
<path d="M11442 17845 c-11 -13 -9 -15 12 -13 19 2 22 5 14 15 -12 15 -10 16
-26 -2z"/>
<path d="M13693 17828 c-2 -16 1 -18 10 -9 7 7 8 14 1 21 -6 6 -10 2 -11 -12z"/>
<path d="M13314 17825 c-10 -8 -14 -15 -8 -15 6 0 17 7 24 15 16 19 9 19 -16
0z"/>
<path d="M13715 17810 c-3 -5 -1 -10 4 -10 6 0 11 5 11 10 0 6 -2 10 -4 10 -3
0 -8 -4 -11 -10z"/>
<path d="M13855 17800 c3 -5 8 -10 11 -10 2 0 4 5 4 10 0 6 -5 10 -11 10 -5 0
-7 -4 -4 -10z"/>
<path d="M13336 17786 c10 -8 21 -12 24 -10 5 6 -21 24 -34 24 -6 0 -1 -6 10
-14z"/>
<path d="M11360 17761 c0 -6 4 -13 10 -16 6 -3 7 1 4 9 -7 18 -14 21 -14 7z"/>
<path d="M13382 17751 c4 -13 18 -16 19 -4 0 4 -5 9 -11 12 -7 2 -11 -2 -8 -8z"/>
<path d="M13426 17747 c3 -8 0 -18 -5 -22 -12 -7 -6 -25 8 -25 11 0 11 49 0
56 -5 3 -6 -1 -3 -9z"/>
<path d="M13730 17729 c0 -5 5 -7 10 -4 6 3 10 8 10 11 0 2 -4 4 -10 4 -5 0
-10 -5 -10 -11z"/>
<path d="M13675 17704 c17 -17 22 -17 28 -1 3 7 -5 13 -19 13 -20 2 -21 0 -9
-12z"/>
<path d="M13720 17706 c0 -2 7 -7 16 -10 8 -3 12 -2 9 4 -6 10 -25 14 -25 6z"/>
<path d="M13756 17674 c-4 -10 -12 -14 -24 -9 -14 5 -15 4 -4 -6 10 -11 15
-10 29 4 9 9 14 19 11 22 -3 3 -8 -2 -12 -11z"/>
<path d="M11289 17653 c-13 -16 -12 -17 4 -4 9 7 17 15 17 17 0 8 -8 3 -21
-13z"/>
<path d="M11235 17649 c-4 -6 -5 -12 -2 -15 2 -3 7 2 10 11 7 17 1 20 -8 4z"/>
<path d="M11257 17633 c-4 -3 -7 -11 -7 -17 0 -6 5 -5 12 2 6 6 9 14 7 17 -3
3 -9 2 -12 -2z"/>
<path d="M13494 17629 c-4 -7 -3 -9 4 -5 5 3 13 0 15 -6 4 -9 6 -10 6 -1 1 17
-16 25 -25 12z"/>
<path d="M12465 17610 c27 -12 43 -12 25 0 -8 5 -22 9 -30 9 -10 0 -8 -3 5 -9z"/>
<path d="M12647 17589 c7 -7 15 -10 18 -7 3 3 -2 9 -12 12 -14 6 -15 5 -6 -5z"/>
<path d="M13515 17590 c3 -5 8 -10 11 -10 2 0 4 5 4 10 0 6 -5 10 -11 10 -5 0
-7 -4 -4 -10z"/>
<path d="M13586 17578 c3 -5 10 -6 15 -3 13 9 11 12 -6 12 -8 0 -12 -4 -9 -9z"/>
<path d="M13846 17574 c-5 -14 -4 -15 9 -4 17 14 19 20 6 20 -5 0 -12 -7 -15
-16z"/>
<path d="M13935 17580 c3 -5 8 -10 11 -10 2 0 4 5 4 10 0 6 -5 10 -11 10 -5 0
-7 -4 -4 -10z"/>
<path d="M11220 17570 c-9 -6 -10 -10 -3 -10 6 0 15 5 18 10 8 12 4 12 -15 0z"/>
<path d="M12075 17570 c-3 -6 1 -7 9 -4 18 7 21 14 7 14 -6 0 -13 -4 -16 -10z"/>
<path d="M12687 17569 c7 -7 15 -10 18 -7 3 3 -2 9 -12 12 -14 6 -15 5 -6 -5z"/>
<path d="M12110 17558 c-16 -7 -20 -12 -12 -15 8 -3 21 2 30 11 19 18 17 19
-18 4z"/>
<path d="M13563 17550 c-1 -16 1 -17 12 -7 7 6 11 15 8 20 -8 13 -19 7 -20
-13z"/>
<path d="M13870 17561 c0 -5 -6 -11 -13 -13 -11 -2 -11 -6 2 -20 15 -15 16
-14 17 13 1 16 0 29 -2 29 -2 0 -4 -4 -4 -9z"/>
<path d="M7460 17545 c-7 -8 -12 -26 -12 -40 0 -36 20 -55 58 -55 35 0 54 20
54 58 0 43 -73 70 -100 37z"/>
<path d="M12690 17545 c-19 -7 -30 -14 -23 -14 6 -1 19 -4 29 -8 13 -5 15 -3
9 7 -6 9 -4 12 7 8 9 -4 15 0 15 8 0 8 -1 14 -1 13 -1 0 -17 -7 -36 -14z"/>
<path d="M12065 17540 c-3 -5 -1 -10 4 -10 6 0 11 5 11 10 0 6 -2 10 -4 10 -3
0 -8 -4 -11 -10z"/>
<path d="M13800 17546 c0 -2 7 -7 16 -10 8 -3 12 -2 9 4 -6 10 -25 14 -25 6z"/>
<path d="M11124 17499 c0 -10 4 -15 8 -13 17 11 7 -17 -12 -33 -23 -20 -26
-43 -5 -43 9 0 12 6 8 15 -3 10 0 15 8 13 8 -2 13 3 11 10 -1 7 4 25 12 40 14
27 13 28 -8 28 -14 0 -22 -6 -22 -17z"/>
<path d="M12840 17501 c0 -5 6 -12 13 -15 6 -3 -1 -4 -17 -1 -26 6 -27 5 -12
-10 13 -13 20 -14 31 -5 8 6 19 8 26 4 8 -4 4 -11 -12 -19 -23 -13 -22 -13 8
-11 47 2 48 10 3 40 -22 14 -40 22 -40 17z"/>
<path d="M11907 17493 c-2 -5 -3 -16 -1 -26 2 -13 -2 -17 -12 -13 -9 3 -12 1
-9 -5 12 -18 29 -4 30 24 2 28 0 33 -8 20z"/>
<path d="M13765 17490 c3 -5 12 -7 20 -3 21 7 19 13 -6 13 -11 0 -18 -4 -14
-10z"/>
<path d="M13657 17463 c10 -3 10 -7 0 -18 -7 -7 -15 -11 -19 -9 -4 3 -1 -8 7
-23 8 -15 15 -35 15 -43 0 -8 5 -22 11 -30 8 -12 9 -10 4 8 -11 39 -13 92 -3
98 11 7 0 24 -15 23 -9 0 -9 -2 0 -6z"/>
<path d="M13753 17463 c-18 -7 -16 -23 3 -23 8 0 13 4 10 9 -4 5 0 12 6 14 7
3 9 5 3 5 -5 0 -16 -2 -22 -5z"/>
<path d="M13900 17456 c0 -2 9 -6 20 -9 11 -3 18 -1 14 4 -5 9 -34 13 -34 5z"/>
<path d="M11938 17443 c7 -3 16 -2 19 1 4 3 -2 6 -13 5 -11 0 -14 -3 -6 -6z"/>
<path d="M11825 17430 c-3 -5 -1 -10 4 -10 6 0 11 5 11 10 0 6 -2 10 -4 10 -3
0 -8 -4 -11 -10z"/>
<path d="M13852 17411 c-6 -17 -7 -31 -3 -31 8 0 22 52 16 58 -1 2 -7 -11 -13
-27z"/>
<path d="M11057 17363 c-3 -16 -1 -32 5 -38 8 -7 9 -6 4 2 -3 6 -2 22 3 35 8
20 10 20 10 4 1 -15 4 -17 12 -9 6 6 8 16 5 22 -13 20 -34 11 -39 -16z"/>
<path d="M11777 17376 c-4 -10 0 -12 14 -9 22 6 26 23 5 23 -8 0 -16 -6 -19
-14z"/>
<path d="M12960 17387 c0 -3 11 -12 24 -20 21 -14 25 -15 30 -1 3 8 1 12 -4 9
-5 -3 -19 -1 -30 5 -11 6 -20 9 -20 7z"/>
<path d="M11744 17363 c4 -7 2 -22 -4 -33 -6 -12 -7 -20 -1 -20 16 0 24 41 11
54 -10 8 -11 8 -6 -1z"/>
<path d="M13037 17333 c-6 -10 11 -23 41 -29 10 -2 10 1 1 12 -6 7 -15 12 -19
9 -5 -3 -10 0 -12 7 -3 8 -6 9 -11 1z"/>
<path d="M13880 17320 c0 -5 5 -10 10 -10 6 0 10 5 10 10 0 6 -4 10 -10 10 -5
0 -10 -4 -10 -10z"/>
<path d="M14010 17309 c0 -5 5 -7 10 -4 6 3 10 8 10 11 0 2 -4 4 -10 4 -5 0
-10 -5 -10 -11z"/>
<path d="M13858 17298 c5 -5 16 -8 23 -6 8 3 3 7 -10 11 -17 4 -21 3 -13 -5z"/>
<path d="M10537 17293 c-4 -3 -7 -11 -7 -17 0 -6 5 -5 12 2 6 6 9 14 7 17 -3
3 -9 2 -12 -2z"/>
<path d="M13735 17280 c-3 -5 -2 -21 1 -37 7 -25 8 -25 15 -8 11 29 10 42 -2
25 -9 -12 -10 -11 -6 8 5 23 2 28 -8 12z"/>
<path d="M13950 17280 c0 -5 5 -10 11 -10 5 0 7 5 4 10 -3 6 -8 10 -11 10 -2
0 -4 -4 -4 -10z"/>
<path d="M11656 17243 c1 -18 -2 -31 -7 -27 -5 3 -9 0 -9 -6 0 -7 6 -10 13 -7
6 2 12 13 12 24 0 12 3 25 8 29 11 11 8 21 -6 21 -10 0 -13 -11 -11 -34z"/>
<path d="M13103 17263 c-15 -5 -17 -23 -4 -23 5 0 11 7 15 15 3 8 4 15 3 14
-1 0 -8 -3 -14 -6z"/>
<path d="M13050 17245 c7 -8 17 -15 22 -15 6 0 5 7 -2 15 -7 8 -17 15 -22 15
-6 0 -5 -7 2 -15z"/>
<path d="M13936 17245 c-3 -8 -1 -15 4 -15 6 0 10 7 10 15 0 8 -2 15 -4 15 -2
0 -6 -7 -10 -15z"/>
<path d="M14025 17230 c-3 -6 1 -7 9 -4 18 7 21 14 7 14 -6 0 -13 -4 -16 -10z"/>
<path d="M12295 17195 l-30 -14 30 5 c23 4 27 3 15 -5 -18 -13 -3 -13 25 -1
l20 9 -20 0 c-17 1 -17 3 -5 11 22 14 -1 11 -35 -5z"/>
<path d="M14006 17193 c-6 -14 -5 -15 5 -6 7 7 10 15 7 18 -3 3 -9 -2 -12 -12z"/>
<path d="M10976 17183 c-2 -10 -8 -29 -11 -43 -5 -16 -4 -22 3 -15 5 6 12 25
15 43 7 34 2 44 -7 15z"/>
<path d="M12483 17183 c9 -2 25 -2 35 0 9 3 1 5 -18 5 -19 0 -27 -2 -17 -5z"/>
<path d="M12965 17180 c3 -6 1 -10 -6 -10 -7 0 -10 -3 -6 -6 3 -3 13 -2 22 4
16 8 16 9 1 15 -10 4 -15 3 -11 -3z"/>
<path d="M14107 17169 c7 -7 15 -10 18 -7 3 3 -2 9 -12 12 -14 6 -15 5 -6 -5z"/>
<path d="M12248 17163 c6 -2 18 -2 25 0 6 3 1 5 -13 5 -14 0 -19 -2 -12 -5z"/>
<path d="M12468 17163 c7 -3 16 -2 19 1 4 3 -2 6 -13 5 -11 0 -14 -3 -6 -6z"/>
<path d="M14005 17120 c-3 -6 1 -7 9 -4 18 7 21 14 7 14 -6 0 -13 -4 -16 -10z"/>
<path d="M11587 17099 c4 -13 8 -18 11 -10 2 7 -1 18 -6 23 -8 8 -9 4 -5 -13z"/>
<path d="M12580 17110 c8 -5 20 -10 25 -10 6 0 3 5 -5 10 -8 5 -19 10 -25 10
-5 0 -3 -5 5 -10z"/>
<path d="M12697 17109 c7 -7 15 -10 18 -7 3 3 -2 9 -12 12 -14 6 -15 5 -6 -5z"/>
<path d="M13930 17106 c4 -4 16 -4 26 2 16 9 14 10 -8 9 -15 -1 -23 -6 -18
-11z"/>
<path d="M13080 17088 c-18 -16 -20 -19 -6 -14 10 3 25 1 32 -5 10 -8 14 -8
14 0 0 6 -5 11 -11 11 -8 0 -8 5 1 15 18 22 -1 18 -30 -7z"/>
<path d="M10976 17085 c-3 -9 -6 -22 -5 -28 0 -7 5 -1 10 12 5 13 8 26 5 28
-2 2 -6 -3 -10 -12z"/>
<path d="M13797 17068 c3 -25 2 -29 -6 -18 -13 19 -14 0 -1 -20 5 -8 10 -10
11 -5 1 6 5 -8 10 -30 6 -34 7 -31 5 23 -1 34 -7 67 -12 72 -7 7 -9 0 -7 -22z"/>
<path d="M12815 17080 c-3 -5 -1 -10 4 -10 6 0 11 5 11 10 0 6 -2 10 -4 10 -3
0 -8 -4 -11 -10z"/>
<path d="M13935 17082 c-14 -10 -18 -39 -6 -46 5 -4 13 -1 17 5 4 8 3 9 -4 5
-7 -4 -12 -2 -12 3 0 6 5 11 11 11 5 0 8 4 5 9 -4 5 0 12 6 14 7 3 9 6 3 6 -5
0 -14 -3 -20 -7z"/>
<path d="M13970 17080 c0 -5 5 -10 11 -10 5 0 7 5 4 10 -3 6 -8 10 -11 10 -2
0 -4 -4 -4 -10z"/>
<path d="M12095 17070 c3 -5 11 -10 16 -10 6 0 7 5 4 10 -3 6 -11 10 -16 10
-6 0 -7 -4 -4 -10z"/>
<path d="M11556 17057 c3 -10 9 -15 12 -12 3 3 0 11 -7 18 -10 9 -11 8 -5 -6z"/>
<path d="M12640 17066 c0 -2 7 -7 16 -10 8 -3 12 -2 9 4 -6 10 -25 14 -25 6z"/>
<path d="M13207 17063 c-4 -3 -7 -16 -6 -27 0 -19 1 -19 10 3 10 24 8 36 -4
24z"/>
<path d="M14092 17056 c7 -8 15 -12 17 -11 5 6 -10 25 -20 25 -5 0 -4 -6 3
-14z"/>
<path d="M13078 17053 c7 -3 16 -2 19 1 4 3 -2 6 -13 5 -11 0 -14 -3 -6 -6z"/>
<path d="M13998 17053 c7 -3 16 -2 19 1 4 3 -2 6 -13 5 -11 0 -14 -3 -6 -6z"/>
<path d="M12035 17029 c-11 -16 -1 -19 13 -3 7 8 8 14 3 14 -5 0 -13 -5 -16
-11z"/>
<path d="M13232 17010 c0 -14 2 -19 5 -12 2 6 2 18 0 25 -3 6 -5 1 -5 -13z"/>
<path d="M12920 16991 c0 -10 19 -25 25 -20 1 2 -3 10 -11 17 -8 7 -14 8 -14
3z"/>
<path d="M12960 16970 c0 -5 7 -10 16 -10 8 0 12 5 9 10 -3 6 -10 10 -16 10
-5 0 -9 -4 -9 -10z"/>
<path d="M13925 16929 c1 -21 5 -42 10 -46 4 -5 5 -3 1 4 -3 6 -2 15 4 18 8 5
7 11 -1 21 -6 8 -9 18 -5 21 4 4 11 1 16 -7 6 -10 10 -11 10 -3 0 7 -8 17 -18
22 -17 9 -19 6 -17 -30z"/>
<path d="M10926 16951 c-4 -5 -2 -20 3 -33 9 -21 10 -21 10 10 1 32 -3 39 -13
23z"/>
<path d="M11951 16934 c-6 -14 -11 -32 -11 -40 0 -9 -5 -12 -11 -8 -7 4 -7 -2
1 -17 16 -31 25 -39 17 -16 -4 10 -2 27 3 37 6 11 14 29 20 40 5 10 6 21 1 24
-4 3 -13 -6 -20 -20z"/>
<path d="M13250 16948 c0 -9 5 -20 10 -23 13 -8 13 5 0 25 -8 13 -10 13 -10
-2z"/>
<path d="M13840 16940 c0 -5 5 -10 10 -10 6 0 10 5 10 10 0 6 -4 10 -10 10 -5
0 -10 -4 -10 -10z"/>
<path d="M14045 16930 c3 -5 8 -10 11 -10 2 0 4 5 4 10 0 6 -5 10 -11 10 -5 0
-7 -4 -4 -10z"/>
<path d="M11973 16903 c-3 -10 -8 -22 -10 -28 -3 -5 3 -1 11 9 16 20 21 36 11
36 -3 0 -8 -8 -12 -17z"/>
<path d="M13965 16910 c-3 -6 1 -7 9 -4 18 7 21 14 7 14 -6 0 -13 -4 -16 -10z"/>
<path d="M12787 16891 c-3 -14 0 -17 14 -14 22 6 25 19 5 26 -8 3 -16 -2 -19
-12z"/>
<path d="M14073 16893 c0 -10 4 -10 16 -1 9 7 18 13 20 15 2 1 -5 1 -16 0 -11
0 -20 -7 -20 -14z"/>
<path d="M12848 16893 c6 -2 18 -2 25 0 6 3 1 5 -13 5 -14 0 -19 -2 -12 -5z"/>
<path d="M13996 16891 c-4 -5 -2 -12 3 -15 5 -4 12 -2 15 3 4 5 2 12 -3 15 -5
4 -12 2 -15 -3z"/>
<path d="M14034 16878 c-4 -7 -4 -10 1 -6 4 4 15 2 24 -5 14 -11 14 -10 2 6
-16 20 -18 21 -27 5z"/>
<path d="M11492 16849 c-1 -9 -5 -32 -8 -50 -4 -28 -3 -31 6 -16 6 9 9 32 7
50 -2 17 -5 25 -5 16z"/>
<path d="M14018 16843 c7 -3 16 -2 19 1 4 3 -2 6 -13 5 -11 0 -14 -3 -6 -6z"/>
<path d="M13970 16829 c0 -5 5 -7 10 -4 6 3 10 8 10 11 0 2 -4 4 -10 4 -5 0
-10 -5 -10 -11z"/>
<path d="M13945 16820 c-3 -5 -1 -10 4 -10 6 0 11 5 11 10 0 6 -2 10 -4 10 -3
0 -8 -4 -11 -10z"/>
<path d="M13997 16809 c7 -9 10 -19 6 -23 -4 -4 1 -4 10 0 10 3 17 7 15 8 -2
1 -12 8 -23 16 -18 14 -19 13 -8 -1z"/>
<path d="M11922 16785 c0 -16 2 -22 5 -12 2 9 2 23 0 30 -3 6 -5 -1 -5 -18z"/>
<path d="M11945 16799 c-4 -6 -5 -12 -2 -15 2 -3 7 2 10 11 7 17 1 20 -8 4z"/>
<path d="M14086 16794 c-3 -9 -2 -22 2 -31 6 -10 9 -5 9 16 0 35 -2 38 -11 15z"/>
<path d="M12821 16734 c0 -11 3 -14 6 -6 3 7 2 16 -1 19 -3 4 -6 -2 -5 -13z"/>
<path d="M14010 16730 c6 -11 13 -20 16 -20 2 0 0 9 -6 20 -6 11 -13 20 -16
20 -2 0 0 -9 6 -20z"/>
<path d="M11932 16720 c0 -14 2 -19 5 -12 2 6 2 18 0 25 -3 6 -5 1 -5 -13z"/>
<path d="M14057 16726 c-3 -8 0 -17 7 -19 10 -4 12 1 9 14 -6 23 -9 24 -16 5z"/>
<path d="M12871 16654 c0 -11 3 -14 6 -6 3 7 2 16 -1 19 -3 4 -6 -2 -5 -13z"/>
<path d="M13960 16663 c0 -5 11 -13 25 -20 14 -6 23 -7 19 -2 -3 5 0 9 5 9 6
0 11 5 11 11 0 8 -4 8 -14 0 -10 -8 -16 -9 -21 -1 -7 12 -25 14 -25 3z"/>
<path d="M11940 16655 c0 -5 5 -17 10 -25 5 -8 10 -10 10 -5 0 6 -5 17 -10 25
-5 8 -10 11 -10 5z"/>
<path d="M11491 16624 c0 -11 3 -14 6 -6 3 7 2 16 -1 19 -3 4 -6 -2 -5 -13z"/>
<path d="M14026 16631 c-3 -5 1 -11 9 -14 9 -4 12 -1 8 9 -6 16 -10 17 -17 5z"/>
<path d="M11940 16590 c0 -5 5 -10 11 -10 5 0 7 5 4 10 -3 6 -8 10 -11 10 -2
0 -4 -4 -4 -10z"/>
<path d="M14035 16589 c-11 -16 -1 -19 13 -3 7 8 8 14 3 14 -5 0 -13 -5 -16
-11z"/>
<path d="M11925 16559 c-5 -7 -4 -10 2 -6 6 4 14 -3 18 -16 4 -15 8 -18 12 -9
8 20 -22 48 -32 31z"/>
<path d="M11967 16552 c3 -12 9 -25 14 -28 14 -8 11 10 -6 32 -13 18 -14 18
-8 -4z"/>
<path d="M14115 16561 c-3 -5 -2 -12 3 -15 5 -3 9 1 9 9 0 17 -3 19 -12 6z"/>
<path d="M13923 16528 c1 -15 6 -23 11 -18 4 4 4 16 -2 26 -9 16 -10 14 -9 -8z"/>
<path d="M13972 16534 c-7 -8 -8 -14 -3 -14 10 0 25 19 20 25 -2 1 -10 -3 -17
-11z"/>
<path d="M10926 16518 c-3 -13 -1 -27 4 -32 7 -7 10 1 10 22 0 37 -5 41 -14
10z"/>
<path d="M11960 16500 c0 -5 5 -10 11 -10 5 0 7 5 4 10 -3 6 -8 10 -11 10 -2
0 -4 -4 -4 -10z"/>
<path d="M13840 16500 c0 -5 5 -10 10 -10 6 0 10 5 10 10 0 6 -4 10 -10 10 -5
0 -10 -4 -10 -10z"/>
<path d="M13978 16502 c-17 -7 -16 -8 2 -20 13 -8 20 -8 20 -1 0 5 6 7 13 3 8
-5 8 -2 -2 9 -7 9 -14 17 -15 16 0 0 -9 -4 -18 -7z"/>
<path d="M11506 16483 c-6 -14 -5 -15 5 -6 7 7 10 15 7 18 -3 3 -9 -2 -12 -12z"/>
<path d="M13221 16484 c0 -11 3 -14 6 -6 3 7 2 16 -1 19 -3 4 -6 -2 -5 -13z"/>
<path d="M14060 16486 c0 -8 4 -17 9 -20 5 -4 7 3 4 14 -6 23 -13 26 -13 6z"/>
<path d="M12005 16479 c-4 -6 -5 -12 -2 -15 2 -3 7 2 10 11 7 17 1 20 -8 4z"/>
<path d="M12737 16468 c-7 -23 4 -23 25 1 16 18 15 20 -2 18 -10 -1 -21 -9
-23 -19z"/>
<path d="M13812 16450 c0 -19 2 -27 5 -17 2 9 2 25 0 35 -3 9 -5 1 -5 -18z"/>
<path d="M14120 16466 c0 -2 8 -10 18 -17 15 -13 16 -12 3 4 -13 16 -21 21
-21 13z"/>
<path d="M12730 16431 c-13 -11 -28 -18 -31 -15 -4 2 -6 -4 -4 -13 1 -10 -4
-26 -13 -35 -10 -12 -11 -18 -3 -18 6 0 19 15 28 34 9 20 26 37 40 40 12 4 23
11 23 16 0 15 -12 12 -40 -9z"/>
<path d="M13791 16433 c0 -12 -4 -30 -7 -40 -5 -17 -5 -17 6 0 6 10 9 28 7 40
-4 22 -4 22 -6 0z"/>
<path d="M13993 16434 c0 -8 3 -12 5 -9 3 3 11 0 19 -6 7 -6 13 -7 13 -3 0 5
-8 14 -18 21 -15 9 -19 8 -19 -3z"/>
<path d="M13232 16420 c0 -14 2 -19 5 -12 2 6 2 18 0 25 -3 6 -5 1 -5 -13z"/>
<path d="M14288 16423 c7 -3 16 -2 19 1 4 3 -2 6 -13 5 -11 0 -14 -3 -6 -6z"/>
<path d="M13203 16396 c0 -18 3 -24 9 -18 7 7 7 16 0 28 -8 14 -9 13 -9 -10z"/>
<path d="M14141 16417 c2 -1 13 -9 24 -17 19 -14 19 -14 6 3 -7 9 -18 17 -24
17 -6 0 -8 -1 -6 -3z"/>
<path d="M13806 16398 c-11 -37 -14 -60 -6 -52 11 12 24 64 16 64 -4 0 -8 -6
-10 -12z"/>
<path d="M11566 16385 c4 -8 10 -15 15 -15 4 0 6 7 3 15 -4 8 -10 15 -15 15
-4 0 -6 -7 -3 -15z"/>
<path d="M13960 16393 c5 -2 10 -13 10 -23 0 -10 4 -21 9 -24 5 -4 6 5 2 21
-4 15 -13 28 -19 29 -7 1 -8 0 -2 -3z"/>
<path d="M14036 16383 c-6 -14 -5 -15 5 -6 7 7 10 15 7 18 -3 3 -9 -2 -12 -12z"/>
<path d="M12650 16380 c-9 -6 -10 -10 -3 -10 6 0 15 5 18 10 8 12 4 12 -15 0z"/>
<path d="M12127 16359 c12 -12 24 -21 27 -18 2 2 -8 13 -22 23 l-27 19 22 -24z"/>
<path d="M12080 16366 c0 -2 7 -9 15 -16 9 -7 15 -8 15 -2 0 5 -7 12 -15 16
-8 3 -15 4 -15 2z"/>
<path d="M11586 16345 c-9 -26 -7 -32 5 -12 6 10 9 21 6 23 -2 3 -7 -2 -11
-11z"/>
<path d="M10916 16325 c-3 -8 -1 -15 4 -15 6 0 10 7 10 15 0 8 -2 15 -4 15 -2
0 -6 -7 -10 -15z"/>
<path d="M10967 16326 c-4 -9 -3 -15 2 -11 5 3 11 0 13 -7 3 -7 7 -5 11 6 4 9
3 15 -2 11 -5 -3 -11 0 -13 7 -3 7 -7 5 -11 -6z"/>
<path d="M12060 16328 c0 -4 4 -8 9 -8 6 0 12 4 15 8 3 5 -1 9 -9 9 -8 0 -15
-4 -15 -9z"/>
<path d="M12580 16330 c-8 -5 -10 -10 -5 -10 6 0 17 5 25 10 8 5 11 10 5 10
-5 0 -17 -5 -25 -10z"/>
<path d="M13151 16311 c-7 -5 -11 -15 -9 -22 3 -10 8 -7 17 9 13 24 12 26 -8
13z"/>
<path d="M13952 16290 c0 -14 2 -19 5 -12 2 6 2 18 0 25 -3 6 -5 1 -5 -13z"/>
<path d="M10971 16280 c0 -8 4 -22 9 -30 12 -18 12 -2 0 25 -6 13 -9 15 -9 5z"/>
<path d="M13166 16273 c-6 -14 -5 -15 5 -6 7 7 10 15 7 18 -3 3 -9 -2 -12 -12z"/>
<path d="M10748 16273 c7 -3 16 -2 19 1 4 3 -2 6 -13 5 -11 0 -14 -3 -6 -6z"/>
<path d="M13870 16269 c0 -5 5 -7 10 -4 6 3 10 8 10 11 0 2 -4 4 -10 4 -5 0
-10 -5 -10 -11z"/>
<path d="M10885 16260 c-3 -5 1 -10 10 -10 9 0 13 5 10 10 -3 6 -8 10 -10 10
-2 0 -7 -4 -10 -10z"/>
<path d="M12275 16260 c-13 -5 -14 -9 -5 -9 8 0 24 4 35 9 13 5 14 9 5 9 -8 0
-24 -4 -35 -9z"/>
<path d="M12428 16263 c7 -3 16 -2 19 1 4 3 -2 6 -13 5 -11 0 -14 -3 -6 -6z"/>
<path d="M13128 16252 c-3 -11 0 -19 7 -19 7 0 10 8 7 19 -2 10 -6 18 -7 18
-1 0 -5 -8 -7 -18z"/>
<path d="M13975 16260 c3 -5 8 -10 11 -10 2 0 4 5 4 10 0 6 -5 10 -11 10 -5 0
-7 -4 -4 -10z"/>
<path d="M12468 16253 c6 -2 18 -2 25 0 6 3 1 5 -13 5 -14 0 -19 -2 -12 -5z"/>
<path d="M11619 16232 c-11 -14 -11 -15 1 -5 11 11 16 7 27 -18 7 -17 11 -34
8 -38 -2 -4 2 -8 10 -8 7 0 13 8 12 18 -1 10 -5 15 -10 12 -5 -3 -6 4 -3 15
10 30 -26 49 -45 24z"/>
<path d="M13860 16210 c0 -5 5 -10 11 -10 5 0 7 5 4 10 -3 6 -8 10 -11 10 -2
0 -4 -4 -4 -10z"/>
<path d="M13900 16211 c0 -10 19 -25 25 -20 1 2 -3 10 -11 17 -8 7 -14 8 -14
3z"/>
<path d="M14005 16210 c-3 -6 1 -7 9 -4 18 7 21 14 7 14 -6 0 -13 -4 -16 -10z"/>
<path d="M14122 16194 c-7 -8 -8 -14 -3 -14 10 0 25 19 20 25 -2 1 -10 -3 -17
-11z"/>
<path d="M13850 16151 c0 -17 2 -31 4 -31 8 0 13 51 5 56 -5 3 -9 -9 -9 -25z"/>
<path d="M13922 16166 c7 -8 15 -12 17 -11 5 6 -10 25 -20 25 -5 0 -4 -6 3
-14z"/>
<path d="M13041 16141 c-26 -37 -26 -42 0 -38 26 4 50 34 42 53 -8 21 -19 17
-42 -15z m29 -12 c-12 -22 -16 -23 -26 -7 -5 7 -3 8 6 3 10 -6 12 -4 7 7 -6
18 1 30 14 22 5 -3 4 -14 -1 -25z"/>
<path d="M13966 16157 c3 -10 9 -15 12 -12 3 3 0 11 -7 18 -10 9 -11 8 -5 -6z"/>
<path d="M11820 16150 c0 -5 5 -10 10 -10 6 0 10 5 10 10 0 6 -4 10 -10 10 -5
0 -10 -4 -10 -10z"/>
<path d="M13696 16143 c-6 -14 -5 -15 5 -6 7 7 10 15 7 18 -3 3 -9 -2 -12 -12z"/>
<path d="M13755 16150 c3 -5 8 -10 11 -10 2 0 4 5 4 10 0 6 -5 10 -11 10 -5 0
-7 -4 -4 -10z"/>
<path d="M13720 16134 c0 -8 5 -12 10 -9 6 4 8 11 5 16 -9 14 -15 11 -15 -7z"/>
<path d="M13790 16142 c0 -4 9 -8 20 -8 11 0 20 4 20 8 0 4 -9 8 -20 8 -11 0
-20 -4 -20 -8z"/>
<path d="M14010 16125 c-14 -8 -20 -14 -14 -15 5 0 19 7 30 15 24 18 16 19
-16 0z"/>
<path d="M13938 16123 c7 -3 16 -2 19 1 4 3 -2 6 -13 5 -11 0 -14 -3 -6 -6z"/>
<path d="M11711 16103 c8 -14 16 -18 20 -11 4 6 12 8 18 4 7 -5 9 -1 5 8 -7
18 -24 21 -24 5 0 -8 -6 -7 -17 2 -15 13 -15 12 -2 -8z"/>
<path d="M13787 16088 c-3 -10 -1 -18 4 -18 5 0 9 5 9 10 0 6 7 10 15 10 8 0
15 4 15 8 0 16 -39 7 -43 -10z"/>
<path d="M12962 16066 c-3 -5 0 -12 7 -14 9 -3 9 -8 -1 -20 -9 -12 -6 -12 9 2
13 10 20 23 16 29 -4 6 0 8 11 4 9 -4 15 -3 11 2 -7 12 -45 10 -53 -3z"/>
<path d="M13846 16065 c-3 -9 -6 -24 -5 -33 0 -9 5 -4 10 12 9 32 6 48 -5 21z"/>
<path d="M11790 16060 c0 -5 5 -10 10 -10 6 0 10 5 10 10 0 6 -4 10 -10 10 -5
0 -10 -4 -10 -10z"/>
<path d="M13764 16049 c0 -13 3 -15 13 -7 7 6 13 12 13 13 0 2 -6 5 -13 8 -7
3 -13 -3 -13 -14z"/>
<path d="M13805 16060 c-3 -5 -2 -10 4 -10 5 0 13 5 16 10 3 6 2 10 -4 10 -5
0 -13 -4 -16 -10z"/>
<path d="M11761 16047 c2 -1 13 -9 24 -17 19 -14 19 -14 6 3 -7 9 -18 17 -24
17 -6 0 -8 -1 -6 -3z"/>
<path d="M13810 16030 c0 -5 5 -10 11 -10 5 0 7 5 4 10 -3 6 -8 10 -11 10 -2
0 -4 -4 -4 -10z"/>
<path d="M13632 16009 c-17 -27 -15 -37 3 -13 14 18 14 18 15 -5 0 -19 3 -22
11 -14 8 8 8 17 -3 32 -14 19 -14 19 -26 0z"/>
<path d="M13860 16021 c0 -6 4 -13 10 -16 6 -3 7 1 4 9 -7 18 -14 21 -14 7z"/>
<path d="M13708 16008 c5 -5 16 -8 23 -6 8 3 3 7 -10 11 -17 4 -21 3 -13 -5z"/>
<path d="M11883 15993 c-7 -2 -13 -10 -13 -16 0 -8 4 -7 12 1 25 25 34 6 13
-28 -7 -13 -6 -13 7 -2 28 22 12 58 -19 45z"/>
<path d="M12879 15988 c-10 -6 -6 -7 11 -2 23 6 24 6 10 -11 -14 -18 -14 -18
13 -1 15 10 27 19 27 20 0 6 -51 2 -61 -6z"/>
<path d="M13738 15986 c-27 -11 -27 -12 -7 -25 18 -10 20 -10 17 1 -3 7 2 18
11 25 20 15 14 15 -21 -1z"/>
<path d="M13780 15987 c0 -10 8 -17 18 -17 9 0 13 4 7 8 -5 4 -13 11 -17 16
-5 5 -8 2 -8 -7z"/>
<path d="M13970 15986 c0 -2 8 -10 18 -17 15 -13 16 -12 3 4 -13 16 -21 21
-21 13z"/>
<path d="M12834 15965 c-18 -14 -18 -14 4 -8 12 3 22 9 22 14 0 12 -3 11 -26
-6z"/>
<path d="M13844 15960 c0 -13 4 -16 10 -10 7 7 7 13 0 20 -6 6 -10 3 -10 -10z"/>
<path d="M13785 15950 c-3 -5 -1 -10 4 -10 6 0 11 5 11 10 0 6 -2 10 -4 10 -3
0 -8 -4 -11 -10z"/>
<path d="M12840 15939 c0 -5 5 -7 10 -4 6 3 10 8 10 11 0 2 -4 4 -10 4 -5 0
-10 -5 -10 -11z"/>
<path d="M12803 15934 c4 -4 1 -14 -6 -23 -11 -14 -10 -15 8 -1 11 8 21 15 23
16 2 1 -5 5 -15 8 -9 4 -14 4 -10 0z"/>
<path d="M13692 15910 c7 -11 17 -20 22 -20 5 0 1 9 -9 20 -10 11 -20 20 -22
20 -2 0 2 -9 9 -20z"/>
<path d="M12695 15910 c-22 -4 -31 -8 -21 -9 20 -1 20 -1 0 -17 -19 -15 -12
-15 30 2 15 6 17 4 11 -7 -6 -11 -5 -11 5 -2 7 6 20 9 29 6 11 -3 11 -1 -3 7
-15 10 -16 14 -5 21 15 10 13 9 -46 -1z"/>
<path d="M13563 15908 c-20 -26 -26 -41 -15 -34 12 7 36 46 29 46 -3 0 -9 -6
-14 -12z"/>
<path d="M13586 15895 c-9 -14 -12 -25 -6 -25 5 0 10 5 10 10 0 17 18 11 23
-7 4 -14 5 -12 6 5 0 12 -4 22 -10 22 -5 0 -7 5 -4 10 14 22 -4 8 -19 -15z"/>
<path d="M12062 15891 c-9 -5 -2 -8 19 -9 17 0 37 -6 42 -11 13 -13 27 -14 27
-2 0 9 -11 14 -60 27 -8 2 -21 0 -28 -5z"/>
<path d="M13630 15880 c0 -11 4 -20 9 -20 5 0 7 9 4 20 -3 11 -7 20 -9 20 -2
0 -4 -9 -4 -20z"/>
<path d="M12080 15866 c0 -2 7 -7 16 -10 8 -3 12 -2 9 4 -6 10 -25 14 -25 6z"/>
<path d="M13525 15830 c-19 -8 -19 -9 3 -9 12 -1 22 4 22 9 0 6 -1 10 -2 9 -2
0 -12 -4 -23 -9z"/>
<path d="M13779 15823 c-13 -16 -12 -17 4 -4 16 13 21 21 13 21 -2 0 -10 -8
-17 -17z"/>
<path d="M12358 15813 c7 -3 16 -2 19 1 4 3 -2 6 -13 5 -11 0 -14 -3 -6 -6z"/>
<path d="M13565 15790 c-16 -7 -17 -9 -3 -9 9 -1 20 4 23 9 7 11 7 11 -20 0z"/>
<path d="M13816 15767 c3 -10 9 -15 12 -12 3 3 0 11 -7 18 -10 9 -11 8 -5 -6z"/>
<path d="M13405 15710 c-16 -16 -26 -30 -22 -30 7 0 57 48 57 55 0 9 -7 5 -35
-25z"/>
<path d="M13560 15696 c0 -2 9 -6 20 -9 11 -3 18 -1 14 4 -5 9 -34 13 -34 5z"/>
<path d="M13611 15693 c-1 -17 16 -25 25 -12 4 7 3 9 -4 5 -5 -3 -13 0 -15 6
-4 9 -6 10 -6 1z"/>
<path d="M13770 15674 c0 -8 5 -12 10 -9 6 4 8 11 5 16 -9 14 -15 11 -15 -7z"/>
<path d="M13480 15670 c-8 -5 -11 -12 -7 -17 5 -4 12 -1 16 6 5 8 14 10 21 6
9 -5 11 -4 6 3 -9 14 -16 15 -36 2z"/>
<path d="M13334 15648 l-19 -23 23 19 c21 18 27 26 19 26 -2 0 -12 -10 -23
-22z"/>
<path d="M13695 15650 c-3 -5 -1 -10 4 -10 6 0 11 5 11 10 0 6 -2 10 -4 10 -3
0 -8 -4 -11 -10z"/>
<path d="M13451 15634 c0 -11 3 -14 6 -6 3 7 2 16 -1 19 -3 4 -6 -2 -5 -13z"/>
<path d="M13645 15640 c-3 -6 1 -7 9 -4 18 7 21 14 7 14 -6 0 -13 -4 -16 -10z"/>
<path d="M13340 15625 c-8 -9 -8 -15 -2 -15 12 0 26 19 19 26 -2 2 -10 -2 -17
-11z"/>
<path d="M13480 15630 c0 -5 5 -10 11 -10 5 0 7 5 4 10 -3 6 -8 10 -11 10 -2
0 -4 -4 -4 -10z"/>
<path d="M13570 15620 c-9 -6 -10 -10 -3 -10 6 0 15 5 18 10 8 12 4 12 -15 0z"/>
<path d="M13608 15623 c7 -3 16 -2 19 1 4 3 -2 6 -13 5 -11 0 -14 -3 -6 -6z"/>
<path d="M13465 15600 c3 -5 8 -10 11 -10 2 0 4 5 4 10 0 6 -5 10 -11 10 -5 0
-7 -4 -4 -10z"/>
<path d="M13229 15563 c-13 -16 -12 -17 4 -4 16 13 21 21 13 21 -2 0 -10 -8
-17 -17z"/>
<path d="M13450 15569 c0 -5 5 -7 10 -4 6 3 10 8 10 11 0 2 -4 4 -10 4 -5 0
-10 -5 -10 -11z"/>
<path d="M13516 15561 c-4 -5 3 -7 14 -4 23 6 26 13 6 13 -8 0 -17 -4 -20 -9z"/>
<path d="M13691 15554 c0 -11 3 -14 6 -6 3 7 2 16 -1 19 -3 4 -6 -2 -5 -13z"/>
<path d="M13242 15548 c-15 -15 -15 -28 0 -28 6 0 8 3 5 7 -4 3 1 12 11 19 9
7 12 14 7 14 -6 0 -16 -5 -23 -12z"/>
<path d="M13446 15535 c4 -8 8 -15 10 -15 2 0 4 7 4 15 0 8 -4 15 -10 15 -5 0
-7 -7 -4 -15z"/>
<path d="M13617 15537 c-3 -7 3 -13 14 -13 13 0 15 3 7 13 -6 7 -12 13 -13 13
-2 0 -5 -6 -8 -13z"/>
<path d="M13540 15530 c0 -5 -7 -7 -15 -4 -8 4 -15 4 -15 1 0 -13 30 -14 40
-1 9 10 9 14 1 14 -6 0 -11 -4 -11 -10z"/>
<path d="M11607 15509 c7 -7 15 -10 18 -7 3 3 -2 9 -12 12 -14 6 -15 5 -6 -5z"/>
<path d="M13595 15501 c-3 -5 -2 -12 3 -15 5 -3 9 1 9 9 0 17 -3 19 -12 6z"/>
<path d="M13680 15471 c0 -6 4 -13 10 -16 6 -3 7 1 4 9 -7 18 -14 21 -14 7z"/>
<path d="M11669 15453 c-13 -16 -12 -17 4 -4 16 13 21 21 13 21 -2 0 -10 -8
-17 -17z"/>
<path d="M13185 15460 c-3 -5 -1 -10 4 -10 6 0 11 5 11 10 0 6 -2 10 -4 10 -3
0 -8 -4 -11 -10z"/>
<path d="M13605 15460 c3 -5 8 -10 11 -10 2 0 4 5 4 10 0 6 -5 10 -11 10 -5 0
-7 -4 -4 -10z"/>
<path d="M13060 15450 c-8 -5 -10 -10 -5 -10 6 0 17 5 25 10 8 5 11 10 5 10
-5 0 -17 -5 -25 -10z"/>
<path d="M13560 15445 c0 -8 2 -15 4 -15 2 0 6 7 10 15 3 8 1 15 -4 15 -6 0
-10 -7 -10 -15z"/>
<path d="M14635 15448 c-35 -19 -55 -52 -55 -91 0 -50 36 -229 100 -492 5 -22
26 -114 45 -205 20 -91 42 -192 50 -225 8 -33 35 -150 59 -260 160 -711 182
-800 203 -831 34 -52 122 -55 168 -6 32 34 32 68 1 208 -94 421 -190 845 -267
1184 -50 217 -103 454 -120 525 -16 72 -35 141 -41 153 -23 45 -97 66 -143 40z"/>
<path d="M13537 15419 c12 -12 25 -20 28 -17 3 3 -7 13 -22 23 l-28 17 22 -23z"/>
<path d="M12956 15404 c-22 -13 -26 -18 -15 -25 20 -13 29 -11 23 4 -3 8 5 18
18 25 13 6 19 11 13 11 -5 0 -23 -7 -39 -15z"/>
<path d="M13580 15412 c0 -5 7 -15 15 -22 8 -7 15 -9 15 -6 0 4 -7 14 -15 22
-8 9 -15 11 -15 6z"/>
<path d="M12994 15395 c-10 -8 -14 -15 -8 -15 6 0 17 7 24 15 16 19 9 19 -16
0z"/>
<path d="M11630 15384 c0 -8 5 -12 10 -9 6 4 8 11 5 16 -9 14 -15 11 -15 -7z"/>
<path d="M13530 15390 c0 -5 5 -10 11 -10 5 0 7 5 4 10 -3 6 -8 10 -11 10 -2
0 -4 -4 -4 -10z"/>
<path d="M13678 15372 c9 -10 19 -14 21 -9 2 5 -3 13 -10 18 -24 15 -30 10
-11 -9z"/>
<path d="M12880 15370 c-18 -12 -2 -12 25 0 13 6 15 9 5 9 -8 0 -22 -4 -30 -9z"/>
<path d="M11858 15363 c7 -3 16 -2 19 1 4 3 -2 6 -13 5 -11 0 -14 -3 -6 -6z"/>
<path d="M13610 15339 c-16 -30 -8 -31 13 -3 10 13 13 24 8 24 -6 0 -15 -9
-21 -21z"/>
<path d="M13705 15340 c-3 -5 -2 -10 4 -10 5 0 13 5 16 10 3 6 2 10 -4 10 -5
0 -13 -4 -16 -10z"/>
<path d="M12000 15330 c0 -8 -9 -10 -27 -6 -20 5 -24 4 -13 -3 16 -11 107 -8
118 4 4 4 -6 5 -21 1 -17 -4 -35 -2 -43 5 -11 9 -14 9 -14 -1z"/>
<path d="M12705 15320 l-20 -9 20 0 c17 -1 17 -3 5 -11 -8 -5 -10 -10 -5 -10
6 0 17 5 25 10 11 7 11 10 2 10 -7 0 -10 5 -7 10 7 11 7 11 -20 0z"/>
<path d="M13498 15319 c14 -5 20 -13 16 -20 -4 -8 -3 -9 4 -5 18 11 2 36 -22
35 -20 0 -20 -1 2 -10z"/>
<path d="M13625 15320 c-3 -5 -2 -10 4 -10 5 0 13 5 16 10 3 6 2 10 -4 10 -5
0 -13 -4 -16 -10z"/>
<path d="M12768 15313 c7 -3 16 -2 19 1 4 3 -2 6 -13 5 -11 0 -14 -3 -6 -6z"/>
<path d="M13556 15306 c4 -10 1 -16 -7 -16 -9 0 -7 -4 4 -11 10 -6 21 -8 24
-5 4 3 1 6 -5 6 -6 0 -9 6 -6 14 3 8 1 17 -5 21 -7 3 -8 0 -5 -9z"/>
<path d="M13660 15310 c0 -5 5 -10 11 -10 5 0 7 5 4 10 -3 6 -8 10 -11 10 -2
0 -4 -4 -4 -10z"/>
<path d="M13460 15301 c0 -5 7 -12 16 -15 14 -5 15 -4 4 9 -14 17 -20 19 -20
6z"/>
<path d="M12028 15293 c7 -3 16 -2 19 1 4 3 -2 6 -13 5 -11 0 -14 -3 -6 -6z"/>
<path d="M12084 15293 c3 -3 39 -7 81 -8 42 -2 74 -1 71 2 -3 3 -40 7 -81 8
-42 2 -74 1 -71 -2z"/>
<path d="M12608 15293 c6 -2 18 -2 25 0 6 3 1 5 -13 5 -14 0 -19 -2 -12 -5z"/>
<path d="M13620 15285 c-7 -9 -8 -15 -2 -15 5 0 12 7 16 15 3 8 4 15 2 15 -2
0 -9 -7 -16 -15z"/>
<path d="M13611 15246 c-12 -14 -12 -16 4 -10 13 5 16 4 11 -5 -6 -9 -3 -9 13
1 12 7 21 17 21 22 0 4 -6 3 -14 -3 -11 -9 -15 -9 -18 0 -2 7 -8 6 -17 -5z"/>
<path d="M11761 15184 c0 -11 3 -14 6 -6 3 7 2 16 -1 19 -3 4 -6 -2 -5 -13z"/>
<path d="M10013 15183 c-40 -8 -75 -50 -71 -86 3 -29 8 -34 63 -54 81 -30 146
-30 179 0 90 80 -20 169 -171 140z"/>
<path d="M13510 15179 c0 -7 56 -7 64 1 2 3 -11 6 -30 6 -19 0 -34 -3 -34 -7z"/>
<path d="M13440 15137 c0 -20 -5 -24 -30 -22 -17 1 -27 -2 -23 -8 4 -6 0 -8
-10 -4 -24 9 -21 0 4 -14 15 -8 19 -8 15 0 -9 13 0 14 22 2 12 -6 24 -5 37 5
10 8 13 14 7 14 -8 0 -10 9 -6 25 4 15 2 25 -5 25 -6 0 -11 -11 -11 -23z m4
-39 c-3 -4 -11 -5 -19 -1 -21 7 -19 12 4 10 11 0 18 -5 15 -9z"/>
<path d="M13490 15139 c0 -5 5 -7 10 -4 6 3 10 8 10 11 0 2 -4 4 -10 4 -5 0
-10 -5 -10 -11z"/>
<path d="M11731 15104 c0 -11 3 -14 6 -6 3 7 2 16 -1 19 -3 4 -6 -2 -5 -13z"/>
<path d="M10703 15060 c-43 -19 -59 -46 -51 -87 4 -22 114 -62 175 -63 114 -1
134 129 24 160 -54 15 -101 12 -148 -10z"/>
<path d="M11742 15040 c0 -19 2 -27 5 -17 2 9 2 25 0 35 -3 9 -5 1 -5 -18z"/>
<path d="M13365 15061 c-3 -5 0 -13 6 -17 7 -4 9 -3 5 4 -3 5 0 13 6 15 9 4
10 6 1 6 -6 1 -14 -3 -18 -8z"/>
<path d="M13293 15025 c1 -5 -8 -9 -20 -7 -13 2 -23 -1 -23 -6 0 -14 28 -23
35 -11 4 5 21 16 38 23 l32 13 -32 -1 c-17 -1 -31 -5 -30 -11z"/>
<path d="M13105 14951 c19 -8 19 -9 -3 -14 -18 -4 -18 -4 -2 -3 26 1 28 20 3
23 -15 2 -15 1 2 -6z"/>
<path d="M13048 14943 c7 -3 16 -2 19 1 4 3 -2 6 -13 5 -11 0 -14 -3 -6 -6z"/>
<path d="M13140 14930 c-8 -5 -10 -10 -5 -10 6 0 17 5 25 10 8 5 11 10 5 10
-5 0 -17 -5 -25 -10z"/>
<path d="M9947 14863 c-13 -22 -37 -121 -37 -153 0 -85 77 -92 117 -10 51 105
37 170 -37 170 -21 0 -41 -3 -43 -7z"/>
<path d="M12796 14861 c-3 -4 3 -16 13 -25 14 -12 24 -14 42 -7 23 9 23 10 2
10 -12 1 -29 4 -38 7 -13 5 -14 8 -3 15 9 6 9 9 1 9 -6 0 -14 -4 -17 -9z"/>
<path d="M12850 14860 c-8 -5 -10 -10 -5 -10 6 0 17 5 25 10 8 5 11 10 5 10
-5 0 -17 -5 -25 -10z"/>
<path d="M12778 14823 c7 -3 16 -2 19 1 4 3 -2 6 -13 5 -11 0 -14 -3 -6 -6z"/>
<path d="M12498 14793 c6 -2 18 -2 25 0 6 3 1 5 -13 5 -14 0 -19 -2 -12 -5z"/>
<path d="M12238 14783 c6 -2 18 -2 25 0 6 3 1 5 -13 5 -14 0 -19 -2 -12 -5z"/>
<path d="M9085 14729 c4 -5 18 -14 32 -20 14 -5 21 -14 17 -21 -5 -7 -3 -8 5
-3 12 7 111 -85 111 -103 0 -5 -13 -7 -29 -4 -39 6 -70 -13 -87 -53 -27 -65
-12 -175 26 -195 29 -16 32 -12 11 11 -26 28 -35 70 -26 126 6 44 41 93 66 93
17 0 79 -66 79 -84 0 -9 7 -16 15 -16 23 0 18 31 -15 96 -32 65 -94 131 -153
163 -41 23 -62 27 -52 10z"/>
<path d="M10610 14681 c-5 -11 -17 -49 -25 -86 -20 -86 -8 -120 45 -120 32 0
37 4 63 54 31 62 36 131 11 155 -22 23 -81 21 -94 -3z"/>
<path d="M17308 14693 c7 -3 16 -2 19 1 4 3 -2 6 -13 5 -11 0 -14 -3 -6 -6z"/>
<path d="M10271 14689 c0 -3 -10 -48 -21 -99 -11 -51 -20 -100 -20 -107 0 -10
21 -13 85 -13 95 0 101 -6 63 -56 -36 -46 -59 -63 -133 -100 -64 -31 -67 -34
-30 -28 78 13 165 72 200 137 30 56 18 67 -75 67 -92 0 -88 -5 -69 106 6 34 9
71 6 81 -3 10 -5 15 -6 12z"/>
<path d="M17259 14670 c-17 -14 -19 -18 -6 -14 9 3 17 2 17 -3 0 -5 9 -9 19
-9 11 0 17 5 14 10 -4 5 4 7 17 3 22 -6 22 -5 7 11 -13 13 -19 14 -29 4 -17
-17 -33 -15 -18 3 18 21 6 19 -21 -5z"/>
<path d="M17340 14681 c0 -6 3 -11 8 -12 15 -1 58 -7 77 -11 12 -2 22 -13 25
-28 6 -24 6 -24 12 -3 4 15 -1 28 -15 40 -12 10 -17 12 -12 4 6 -11 4 -13 -11
-6 -10 4 -28 9 -40 10 -11 1 -25 5 -32 9 -7 4 -12 2 -12 -3z"/>
<path d="M17640 14676 c0 -9 50 -12 62 -5 8 6 -1 9 -24 9 -21 0 -38 -2 -38 -4z"/>
<path d="M17725 14665 c-36 -16 -28 -19 10 -5 22 8 26 8 22 -3 -7 -19 29 -97
45 -97 8 0 9 3 3 8 -6 4 -17 20 -25 35 -11 22 -11 30 -2 36 9 6 8 11 -5 23
-16 14 -22 14 -48 3z"/>
<path d="M17551 14644 c-12 -15 -21 -32 -21 -38 0 -6 6 -2 12 9 16 30 18 31
28 16 5 -10 8 -6 7 12 -1 15 -3 27 -4 27 -1 0 -11 -12 -22 -26z"/>
<path d="M17216 14614 c-4 -9 -4 -19 -1 -22 2 -3 7 3 11 12 4 9 4 19 1 22 -2
3 -7 -3 -11 -12z"/>
<path d="M17347 14614 c-14 -14 -7 -25 13 -22 12 2 21 8 21 13 0 12 -24 18
-34 9z"/>
<path d="M17806 14597 c3 -10 9 -15 12 -12 3 3 0 11 -7 18 -10 9 -11 8 -5 -6z"/>
<path d="M17490 14595 c0 -5 5 -17 10 -25 5 -8 10 -10 10 -5 0 6 -5 17 -10 25
-5 8 -10 11 -10 5z"/>
<path d="M17582 14580 c-8 -13 -8 -20 -2 -20 6 0 13 7 17 15 9 24 -1 27 -15 5z"/>
<path d="M17220 14470 c0 -5 5 -10 10 -10 6 0 10 5 10 10 0 6 -4 10 -10 10 -5
0 -10 -4 -10 -10z"/>
<path d="M17777 14459 c4 -13 8 -18 11 -10 2 7 -1 18 -6 23 -8 8 -9 4 -5 -13z"/>
<path d="M12832 14394 c-118 -35 -229 -71 -248 -80 -105 -50 -190 -252 -165
-389 20 -107 79 -189 171 -237 38 -19 60 -23 143 -23 90 0 98 -2 102 -20 3
-11 30 -175 61 -365 148 -912 140 -870 170 -901 50 -53 73 -54 254 -14 89 20
182 38 207 42 l45 6 -6 36 c-3 20 -6 42 -6 50 0 15 5 16 -160 -29 -124 -34
-184 -35 -207 -4 -20 27 -15 62 12 89 l24 25 -45 0 c-50 0 -94 32 -94 70 0 26
25 77 42 83 7 3 1 6 -13 6 -15 1 -41 14 -59 31 -30 28 -32 34 -27 76 3 32 13
54 33 75 l28 29 -40 0 c-80 0 -119 83 -74 157 32 54 55 63 351 143 l35 10 -43
167 c-37 145 -79 324 -129 548 -20 91 -56 259 -58 270 -1 6 -13 56 -26 113
-20 90 -26 102 -44 101 -12 0 -117 -29 -234 -65z"/>
<path d="M17257 14433 c-4 -3 -7 -11 -7 -17 0 -6 5 -5 12 2 6 6 9 14 7 17 -3
3 -9 2 -12 -2z"/>
<path d="M17266 14402 c-2 -4 -1 -14 5 -22 7 -12 9 -10 9 8 0 23 -5 28 -14 14z"/>
<path d="M17670 14388 c0 -15 18 -17 30 -3 9 11 8 14 -9 12 -12 -1 -21 -5 -21
-9z"/>
<path d="M17723 14348 c1 -17 -3 -22 -15 -20 -24 4 -30 -12 -13 -34 15 -19 15
-19 8 0 -5 16 -3 18 11 13 10 -4 15 -3 11 3 -3 6 -2 10 3 10 17 0 20 24 6 38
-12 10 -13 9 -11 -10z"/>
<path d="M17339 14318 c-1 -2 -2 -15 -3 -30 -2 -21 1 -25 11 -16 16 13 17 32
1 22 -8 -5 -9 -2 -5 9 5 13 1 25 -4 15z"/>
<path d="M9894 14255 c-23 -34 -15 -135 12 -172 31 -41 65 -63 109 -69 l40 -6
-52 27 c-77 39 -115 113 -93 181 15 45 42 45 128 -4 157 -89 205 -96 65 -10
-120 74 -127 78 -162 78 -22 0 -35 -7 -47 -25z"/>
<path d="M17396 14225 c-11 -8 -16 -15 -10 -15 5 0 18 7 28 15 11 8 16 15 10
15 -5 0 -18 -7 -28 -15z"/>
<path d="M17440 14229 c0 -5 5 -7 10 -4 6 3 10 8 10 11 0 2 -4 4 -10 4 -5 0
-10 -5 -10 -11z"/>
<path d="M17580 14231 c0 -14 29 -21 36 -9 4 7 3 8 -4 4 -7 -4 -12 -2 -12 3 0
6 -4 11 -10 11 -5 0 -10 -4 -10 -9z"/>
<path d="M17614 14198 l-19 -23 23 19 c21 18 27 26 19 26 -2 0 -12 -10 -23
-22z"/>
<path d="M17482 14135 c23 -27 39 -35 18 -10 -7 8 -9 15 -4 15 11 0 -18 20
-28 20 -5 0 2 -11 14 -25z"/>
<path d="M17559 14143 c-13 -16 -12 -17 4 -4 9 7 17 15 17 17 0 8 -8 3 -21
-13z"/>
<path d="M2825 13690 c-3 -6 1 -7 9 -4 18 7 21 14 7 14 -6 0 -13 -4 -16 -10z"/>
<path d="M2921 13434 c0 -11 3 -14 6 -6 3 7 2 16 -1 19 -3 4 -6 -2 -5 -13z"/>
<path d="M2901 13304 c0 -11 3 -14 6 -6 3 7 2 16 -1 19 -3 4 -6 -2 -5 -13z"/>
<path d="M2971 13234 c0 -11 3 -14 6 -6 3 7 2 16 -1 19 -3 4 -6 -2 -5 -13z"/>
<path d="M15674 12686 c-15 -40 21 -80 54 -60 37 24 21 74 -25 74 -13 0 -26
-6 -29 -14z"/>
<path d="M7771 12418 c-52 -292 -114 -745 -256 -1843 -58 -451 -108 -838 -111
-860 -4 -22 -3 -37 0 -34 17 16 73 420 292 2079 25 190 56 428 70 529 24 179
28 255 5 129z"/>
<path d="M4778 12413 c6 -2 18 -2 25 0 6 3 1 5 -13 5 -14 0 -19 -2 -12 -5z"/>
<path d="M4168 12373 c7 -3 16 -2 19 1 4 3 -2 6 -13 5 -11 0 -14 -3 -6 -6z"/>
<path d="M3181 12354 c0 -11 3 -14 6 -6 3 7 2 16 -1 19 -3 4 -6 -2 -5 -13z"/>
<path d="M3928 12363 c6 -2 18 -2 25 0 6 3 1 5 -13 5 -14 0 -19 -2 -12 -5z"/>
<path d="M4493 12353 c9 -2 23 -2 30 0 6 3 -1 5 -18 5 -16 0 -22 -2 -12 -5z"/>
<path d="M10580 11890 c0 -9 7 -67 17 -130 18 -124 24 -479 11 -650 l-7 -95
110 -115 110 -115 -5 205 c-8 305 -38 466 -128 675 -76 177 -107 242 -108 225z"/>
<path d="M16182 11748 c5 -18 12 -43 15 -55 l5 -23 -170 0 -171 0 -12 35 c-7
19 -17 35 -22 35 -5 0 -6 -16 -3 -35 l7 -35 -892 0 -891 0 -34 -34 c-27 -27
-34 -42 -34 -73 0 -34 73 -399 82 -408 4 -4 4258 32 4262 37 6 5 -80 352 -92
374 -6 11 -29 37 -50 56 -69 62 -56 62 -1052 54 l-896 -7 -23 55 c-25 60 -46
77 -29 24z m-1688 -262 c28 -26 36 -41 36 -68 0 -48 -37 -100 -78 -110 -35 -9
-102 6 -102 22 0 5 -7 16 -16 24 -23 24 -29 79 -10 99 9 8 16 20 16 25 0 18
45 41 82 41 28 1 45 -7 72 -33z m295 8 c76 -64 31 -194 -68 -194 -111 0 -160
132 -73 200 37 30 102 27 141 -6z m297 -8 c28 -28 34 -42 34 -76 0 -34 -6 -48
-34 -76 -29 -29 -41 -34 -79 -34 -37 0 -51 5 -76 31 -26 26 -31 38 -31 81 0
43 4 54 31 79 25 23 40 29 76 29 38 0 50 -5 79 -34z"/>
<path d="M14440 11490 c0 -5 5 -10 11 -10 5 0 7 5 4 10 -3 6 -8 10 -11 10 -2
0 -4 -4 -4 -10z"/>
<path d="M14348 11465 c-6 -14 -8 -28 -3 -33 4 -4 10 -1 12 6 3 6 12 12 21 12
14 0 14 2 3 9 -7 5 -10 14 -7 20 4 6 2 11 -4 11 -6 0 -16 -11 -22 -25z"/>
<path d="M14486 11467 c4 -12 0 -15 -18 -11 -13 2 -16 1 -8 -2 8 -4 20 -11 26
-16 18 -13 25 18 8 33 -12 10 -13 9 -8 -4z"/>
<path d="M14420 11460 c0 -5 5 -10 10 -10 6 0 10 5 10 10 0 6 -4 10 -10 10 -5
0 -10 -4 -10 -10z"/>
<path d="M14502 11385 c0 -16 2 -22 5 -12 2 9 2 23 0 30 -3 6 -5 -1 -5 -18z"/>
<path d="M14426 11382 c-3 -6 -1 -14 5 -17 15 -10 25 3 12 16 -7 7 -13 7 -17
1z"/>
<path d="M14372 11364 c-11 -12 -11 -18 -2 -29 24 -29 121 -11 119 22 -1 15
-2 16 -6 2 -4 -16 -45 -30 -82 -28 -12 0 -12 2 4 10 16 7 14 8 -9 4 -26 -6
-28 -4 -16 10 17 20 9 28 -8 9z"/>
<path d="M11961 11113 c32 -111 76 -290 104 -423 41 -196 45 -169 9 55 -17
102 -41 198 -85 332 -36 108 -57 135 -28 36z"/>
<path d="M12847 11047 c-3 -9 1 -21 9 -27 11 -10 14 -10 14 1 0 8 -4 20 -9 27
-7 11 -9 11 -14 -1z"/>
<path d="M12906 10849 c-14 -46 -97 -294 -116 -344 l-22 -60 162 -565 c88
-310 162 -565 163 -566 1 -1 26 -15 55 -30 79 -43 83 -46 142 -89 73 -53 88
-66 116 -95 13 -14 24 -20 24 -15 0 6 -25 96 -55 200 -31 105 -94 323 -141
485 -47 162 -98 338 -114 390 -15 52 -67 230 -115 395 -48 165 -89 302 -91
304 -2 2 -5 -2 -8 -10z"/>
<path d="M14955 10581 l-340 -6 470 -7 c259 -4 607 -4 775 0 l305 9 -295 1
c-162 1 -358 4 -435 5 -77 2 -293 1 -480 -2z"/>
<path d="M2770 10260 c-96 -3 88 -6 410 -6 385 0 520 2 395 7 -219 7 -553 7
-805 -1z"/>
<path d="M14815 10180 c-4 -7 227 -10 684 -10 454 0 691 3 691 10 0 7 -235 10
-684 10 -446 0 -687 -3 -691 -10z"/>
<path d="M2780 9960 c-58 -3 161 -6 485 -6 325 0 538 3 475 6 -139 9 -813 9
-960 0z"/>
<path d="M15050 9790 c263 -9 874 -9 1145 0 126 4 -101 6 -570 6 -467 0 -698
-2 -575 -6z"/>
<path d="M2950 9670 c-180 -5 -177 -5 130 -10 173 -3 439 -3 590 0 l275 5
-274 8 c-279 7 -393 7 -721 -3z"/>
<path d="M15115 9370 c-71 -3 219 -6 645 -6 426 0 710 3 630 6 -172 9 -1089 8
-1275 0z"/>
<path d="M2985 9340 c61 -4 274 -7 475 -7 201 0 415 3 475 7 61 3 -153 7 -475
7 -322 0 -536 -4 -475 -7z"/>
<path d="M7936 8970 c-130 -101 -248 -161 -401 -206 -123 -35 -212 -46 -365
-42 -77 2 -140 0 -140 -3 0 -15 178 -31 272 -25 116 7 175 18 286 54 148 47
358 175 430 263 36 44 15 34 -82 -41z"/>
<path d="M9637 8680 c-4 -19 -25 -156 -46 -305 -48 -321 -329 -2187 -371
-2462 -31 -196 -37 -267 -19 -208 9 31 88 497 158 940 92 576 251 1672 281
1942 12 100 9 162 -3 93z"/>
<path d="M2567 8008 c-26 -17 -47 -36 -47 -43 0 -7 52 -201 116 -431 245 -891
376 -1360 385 -1391 l11 -33 305 0 305 0 39 28 c38 27 57 52 39 52 -6 0 -10
-5 -10 -11 0 -5 -5 -7 -10 -4 -6 3 -133 6 -283 5 -303 -1 -286 -5 -302 70 -4
19 -13 55 -21 79 -8 24 -13 50 -10 58 3 7 2 13 -3 13 -9 0 -26 67 -22 84 1 4
-2 13 -7 20 -10 11 -45 139 -65 231 -5 28 -13 52 -16 55 -7 5 -29 87 -57 209
-8 36 -19 70 -25 78 -6 7 -12 37 -13 67 0 30 -4 49 -8 43 -8 -14 -31 71 -24
90 3 8 2 12 -2 9 -5 -3 -15 19 -24 47 -26 84 -60 208 -73 262 -6 28 -14 57
-18 65 -3 8 -13 47 -22 85 -21 90 -45 175 -57 200 -5 11 -10 30 -11 43 0 12
-5 22 -10 22 -4 0 -6 4 -2 9 13 23 -15 17 -58 -11z"/>
<path d="M2668 8003 c7 -3 16 -2 19 1 4 3 -2 6 -13 5 -11 0 -14 -3 -6 -6z"/>
<path d="M12228 7853 c-170 -216 -311 -470 -404 -724 -30 -83 -31 -102 -1 -68
26 30 97 75 112 71 5 -2 7 0 2 4 -4 4 12 19 36 33 77 46 524 358 564 394 13
11 21 22 19 24 -3 4 -60 -25 -80 -40 -6 -5 -83 -57 -171 -116 -198 -133 -321
-218 -402 -277 -72 -52 -73 -58 12 123 102 214 196 373 342 575 35 48 63 90
63 93 0 18 -25 -7 -92 -92z"/>
<path d="M3201 7734 c0 -11 3 -14 6 -6 3 7 2 16 -1 19 -3 4 -6 -2 -5 -13z"/>
<path d="M3282 7610 c0 -14 2 -19 5 -12 2 6 2 18 0 25 -3 6 -5 1 -5 -13z"/>
<path d="M3252 7600 c0 -14 2 -19 5 -12 2 6 2 18 0 25 -3 6 -5 1 -5 -13z"/>
<path d="M2781 7554 c0 -11 3 -14 6 -6 3 7 2 16 -1 19 -3 4 -6 -2 -5 -13z"/>
<path d="M3292 7505 c0 -16 2 -22 5 -12 2 9 2 23 0 30 -3 6 -5 -1 -5 -18z"/>
<path d="M3469 7453 l-46 -48 69 -235 c38 -129 112 -383 164 -565 53 -181 107
-369 121 -417 l26 -88 273 0 272 0 62 35 c35 20 64 34 65 33 2 -2 10 -20 18
-40 l16 -38 301 0 301 0 54 38 c30 20 54 42 55 47 0 13 -20 35 -32 35 -15 0
-8 -19 10 -23 9 -3 -115 -5 -275 -6 -265 -1 -293 1 -293 15 0 9 -11 48 -25 86
-14 38 -25 78 -25 89 0 10 -4 19 -9 19 -5 0 -12 16 -15 35 -4 20 -20 75 -36
122 -15 48 -26 91 -23 96 2 4 0 13 -5 20 -17 23 -51 137 -41 142 5 4 9 14 8
23 0 14 -2 13 -8 -3 -8 -19 -8 -19 -20 3 -7 12 -9 27 -6 32 12 19 -17 10 -61
-20 -24 -17 -44 -38 -44 -47 0 -22 31 -135 40 -148 9 -12 25 -77 22 -89 -2 -4
1 -13 6 -20 11 -13 58 -162 68 -212 3 -19 10 -37 15 -40 19 -11 8 -36 -23 -50
-29 -13 -21 -14 20 -3 8 2 18 -6 22 -18 l9 -21 -293 -2 c-266 0 -294 1 -300
16 -4 9 -4 26 -1 38 3 12 2 14 -2 6 -6 -14 -41 77 -42 113 -1 9 -5 25 -11 35
-9 16 -21 57 -56 197 -9 33 -19 69 -24 80 -16 36 -70 240 -70 264 0 12 -4 20
-8 17 -5 -3 -16 30 -26 72 -17 76 -41 158 -57 197 -5 11 -13 38 -18 60 -36
145 -57 215 -66 215 -6 0 -31 -21 -56 -47z"/>
<path d="M4086 7447 c3 -10 9 -15 12 -12 3 3 0 11 -7 18 -10 9 -11 8 -5 -6z"/>
<path d="M4040 7436 c0 -8 5 -18 10 -21 6 -3 10 3 10 14 0 12 -4 21 -10 21 -5
0 -10 -6 -10 -14z"/>
<path d="M4092 7300 c0 -14 2 -19 5 -12 2 6 2 18 0 25 -3 6 -5 1 -5 -13z"/>
<path d="M2866 7283 c-6 -14 -5 -15 5 -6 7 7 10 15 7 18 -3 3 -9 -2 -12 -12z"/>
<path d="M16166 7282 c-3 -5 1 -9 9 -9 8 0 12 4 9 9 -3 4 -7 8 -9 8 -2 0 -6
-4 -9 -8z"/>
<path d="M16210 7255 c0 -5 5 -17 10 -25 5 -8 10 -10 10 -5 0 6 -5 17 -10 25
-5 8 -10 11 -10 5z"/>
<path d="M16191 7234 c0 -11 3 -14 6 -6 3 7 2 16 -1 19 -3 4 -6 -2 -5 -13z"/>
<path d="M4179 7148 c0 -7 -1 -30 -3 -51 -2 -22 0 -33 5 -26 8 13 10 89 3 89
-2 0 -4 -6 -5 -12z"/>
<path d="M16200 7121 c0 -22 16 -36 24 -22 8 12 -3 41 -15 41 -5 0 -9 -9 -9
-19z"/>
<path d="M15565 7091 c-3 -6 -16 -11 -28 -11 -12 0 -29 -5 -37 -10 -10 -6 -2
-8 25 -3 41 6 63 18 53 28 -3 4 -9 2 -13 -4z"/>
<path d="M15470 7080 c-8 -5 -10 -10 -5 -10 6 0 17 5 25 10 8 5 11 10 5 10 -5
0 -17 -5 -25 -10z"/>
<path d="M15435 7061 c-6 -11 13 -26 22 -17 4 3 1 6 -6 6 -7 0 -9 5 -6 10 3 6
4 10 1 10 -3 0 -7 -4 -11 -9z"/>
<path d="M3454 7039 c-3 -6 -2 -15 3 -20 5 -5 9 -1 9 11 0 23 -2 24 -12 9z"/>
<path d="M16286 7037 c3 -10 9 -15 12 -12 3 3 0 11 -7 18 -10 9 -11 8 -5 -6z"/>
<path d="M15370 7020 c-9 -6 -10 -10 -3 -10 6 0 15 5 18 10 8 12 4 12 -15 0z"/>
<path d="M3466 6983 c-3 -10 -9 -25 -12 -33 -5 -13 -4 -13 5 0 9 12 11 10 11
-12 0 -33 9 -58 21 -58 6 0 5 9 -1 21 -6 11 -12 38 -12 60 0 43 -3 47 -12 22z"/>
<path d="M15307 6983 c-3 -5 6 -9 20 -10 19 -1 22 1 12 8 -17 11 -26 11 -32 2z"/>
<path d="M4205 6971 c-3 -5 -1 -12 5 -16 5 -3 10 1 10 9 0 18 -6 21 -15 7z"/>
<path d="M16321 6944 c0 -11 3 -14 6 -6 3 7 2 16 -1 19 -3 4 -6 -2 -5 -13z"/>
<path d="M15233 6926 c-17 -20 -17 -20 0 -7 12 10 21 10 30 3 10 -8 13 -6 13
7 0 24 -22 22 -43 -3z"/>
<path d="M3390 6900 c0 -5 5 -10 10 -10 6 0 10 5 10 10 0 6 -4 10 -10 10 -5 0
-10 -4 -10 -10z"/>
<path d="M15240 6886 c7 -7 13 -7 20 0 6 6 3 10 -10 10 -13 0 -16 -4 -10 -10z"/>
<path d="M4270 6870 c6 -11 13 -20 16 -20 2 0 0 9 -6 20 -6 11 -13 20 -16 20
-2 0 0 -9 6 -20z"/>
<path d="M16360 6879 c0 -9 -12 -21 -27 -28 -74 -29 -89 -34 -98 -36 -21 -3
-84 -35 -99 -50 -13 -13 -16 -39 -16 -126 0 -60 3 -109 7 -109 20 0 315 125
319 134 5 12 -28 105 -65 186 -11 25 -21 38 -21 29z"/>
<path d="M15160 6861 c0 -6 4 -13 10 -16 6 -3 7 1 4 9 -7 18 -14 21 -14 7z"/>
<path d="M15143 6825 c-16 -18 -17 -33 -1 -17 15 15 31 16 22 0 -4 -7 -3 -8 5
-4 9 6 9 11 0 22 -14 17 -11 17 -26 -1z"/>
<path d="M4281 6814 c0 -11 3 -14 6 -6 3 7 2 16 -1 19 -3 4 -6 -2 -5 -13z"/>
<path d="M15731 6814 c0 -11 3 -14 6 -6 3 7 2 16 -1 19 -3 4 -6 -2 -5 -13z"/>
<path d="M4466 6803 c-6 -14 -5 -15 5 -6 7 7 10 15 7 18 -3 3 -9 -2 -12 -12z"/>
<path d="M4988 6813 c7 -3 16 -2 19 1 4 3 -2 6 -13 5 -11 0 -14 -3 -6 -6z"/>
<path d="M15185 6801 c-3 -5 -1 -12 5 -16 5 -3 10 1 10 9 0 18 -6 21 -15 7z"/>
<path d="M15572 6775 c0 -16 2 -22 5 -12 2 9 2 23 0 30 -3 6 -5 -1 -5 -18z"/>
<path d="M15072 6759 c-19 -30 -11 -32 11 -3 10 13 14 24 10 24 -5 0 -14 -9
-21 -21z"/>
<path d="M3541 6744 c0 -11 3 -14 6 -6 3 7 2 16 -1 19 -3 4 -6 -2 -5 -13z"/>
<path d="M4227 6744 c-8 -8 1 -24 14 -24 5 0 9 7 9 15 0 15 -12 20 -23 9z"/>
<path d="M5071 6718 c0 -28 2 -30 9 -13 12 28 12 45 0 45 -5 0 -10 -15 -9 -32z"/>
<path d="M15090 6740 c0 -5 5 -10 10 -10 6 0 10 5 10 10 0 6 -4 10 -10 10 -5
0 -10 -4 -10 -10z"/>
<path d="M3555 6719 c-4 -6 -5 -12 -2 -15 2 -3 7 2 10 11 7 17 1 20 -8 4z"/>
<path d="M3561 6654 c0 -11 3 -14 6 -6 3 7 2 16 -1 19 -3 4 -6 -2 -5 -13z"/>
<path d="M3031 6634 c0 -11 3 -14 6 -6 3 7 2 16 -1 19 -3 4 -6 -2 -5 -13z"/>
<path d="M14981 6624 c0 -11 3 -14 6 -6 3 7 2 16 -1 19 -3 4 -6 -2 -5 -13z"/>
<path d="M15764 6623 l-42 -16 -7 -124 c-4 -68 -5 -126 -3 -128 2 -2 29 8 60
23 65 31 68 39 68 173 0 100 -1 101 -76 72z"/>
<path d="M15000 6614 c0 -8 5 -12 10 -9 6 3 10 10 10 16 0 5 -4 9 -10 9 -5 0
-10 -7 -10 -16z"/>
<path d="M3816 6572 c-2 -4 -1 -14 5 -22 7 -12 9 -10 9 8 0 23 -5 28 -14 14z"/>
<path d="M5131 6554 c0 -11 3 -14 6 -6 3 7 2 16 -1 19 -3 4 -6 -2 -5 -13z"/>
<path d="M3560 6551 c0 -6 5 -13 10 -16 6 -3 10 1 10 9 0 9 -4 16 -10 16 -5 0
-10 -4 -10 -9z"/>
<path d="M14952 6540 c0 -14 2 -19 5 -12 2 6 2 18 0 25 -3 6 -5 1 -5 -13z"/>
<path d="M14925 6520 c3 -5 8 -10 11 -10 2 0 4 5 4 10 0 6 -5 10 -11 10 -5 0
-7 -4 -4 -10z"/>
<path d="M3603 6493 c2 -12 6 -26 10 -29 11 -11 8 19 -3 36 -8 12 -9 10 -7 -7z"/>
<path d="M15535 6476 c-17 -17 -46 -53 -65 -81 -19 -27 -38 -52 -41 -55 -4 -3
-20 -43 -36 -90 -25 -72 -30 -102 -32 -195 -2 -117 12 -191 51 -274 l22 -46 7
115 c7 129 36 228 87 302 28 41 30 50 38 192 5 81 7 151 4 156 -3 4 -19 -6
-35 -24z"/>
<path d="M14902 6460 c0 -14 2 -19 5 -12 2 6 2 18 0 25 -3 6 -5 1 -5 -13z"/>
<path d="M3640 6429 c0 -13 5 -31 10 -39 7 -11 8 -6 5 19 -5 40 -15 54 -15 20z"/>
<path d="M5122 6410 c0 -14 2 -19 5 -12 2 6 2 18 0 25 -3 6 -5 1 -5 -13z"/>
<path d="M14940 6410 c0 -5 5 -10 10 -10 6 0 10 5 10 10 0 6 -4 10 -10 10 -5
0 -10 -4 -10 -10z"/>
<path d="M5155 6399 c-4 -6 -5 -12 -2 -15 2 -3 7 2 10 11 7 17 1 20 -8 4z"/>
<path d="M3881 6374 c0 -11 3 -14 6 -6 3 7 2 16 -1 19 -3 4 -6 -2 -5 -13z"/>
<path d="M3631 6354 c0 -11 3 -14 6 -6 3 7 2 16 -1 19 -3 4 -6 -2 -5 -13z"/>
<path d="M5134 6355 c-3 -8 -4 -20 -2 -27 3 -7 7 -1 10 15 6 29 1 36 -8 12z"/>
<path d="M5151 6334 c0 -11 3 -14 6 -6 3 7 2 16 -1 19 -3 4 -6 -2 -5 -13z"/>
<path d="M3890 6319 c0 -5 5 -7 10 -4 6 3 10 8 10 11 0 2 -4 4 -10 4 -5 0 -10
-5 -10 -11z"/>
<path d="M4378 6203 c6 -2 18 -2 25 0 6 3 1 5 -13 5 -14 0 -19 -2 -12 -5z"/>
<path d="M14842 6135 c0 -16 2 -22 5 -12 2 9 2 23 0 30 -3 6 -5 -1 -5 -18z"/>
<path d="M14852 5945 c0 -16 2 -22 5 -12 2 9 2 23 0 30 -3 6 -5 -1 -5 -18z"/>
<path d="M14851 5829 c-6 -18 -9 -34 -7 -36 2 -2 9 10 15 28 6 18 9 34 7 36
-2 2 -9 -10 -15 -28z"/>
<path d="M15371 5794 c-1 -15 23 -64 32 -64 4 0 7 7 7 15 0 8 -4 15 -8 15 -5
0 -14 10 -20 23 -6 12 -11 17 -11 11z"/>
<path d="M15440 5703 c0 -6 8 -17 18 -24 16 -13 16 -13 2 6 -8 11 -16 22 -17
24 -2 2 -3 0 -3 -6z"/>
<path d="M14945 5670 c3 -5 8 -10 11 -10 2 0 4 5 4 10 0 6 -5 10 -11 10 -5 0
-7 -4 -4 -10z"/>
<path d="M16832 5668 c-14 -14 -16 -28 -3 -28 5 0 11 9 14 20 6 23 5 24 -11 8z"/>
<path d="M16726 5654 c-9 -8 -16 -18 -16 -20 0 -7 38 15 45 26 10 16 -12 12
-29 -6z"/>
<path d="M15470 5656 c0 -2 8 -10 18 -17 15 -13 16 -12 3 4 -13 16 -21 21 -21
13z"/>
<path d="M14940 5614 c0 -9 -5 -12 -12 -8 -8 5 -8 1 2 -12 8 -10 15 -20 16
-22 0 -1 1 11 2 28 0 16 -1 30 -4 30 -2 0 -4 -7 -4 -16z"/>
<path d="M15470 5621 c0 -10 19 -25 25 -20 1 2 -3 10 -11 17 -8 7 -14 8 -14 3z"/>
<path d="M16680 5626 c0 -2 7 -7 16 -10 8 -3 12 -2 9 4 -6 10 -25 14 -25 6z"/>
<path d="M15440 5610 c0 -5 5 -10 11 -10 5 0 7 5 4 10 -3 6 -8 10 -11 10 -2 0
-4 -4 -4 -10z"/>
<path d="M16535 5570 c-3 -6 1 -7 9 -4 18 7 21 14 7 14 -6 0 -13 -4 -16 -10z"/>
<path d="M16481 5546 c-24 -13 -24 -14 -4 -20 12 -4 36 0 55 8 31 14 32 15 4
9 -20 -4 -27 -3 -22 6 9 15 -3 14 -33 -3z m26 -12 c-3 -3 -12 -4 -19 -1 -8 3
-5 6 6 6 11 1 17 -2 13 -5z"/>
<path d="M15000 5525 c0 -8 4 -15 10 -15 5 0 7 7 4 15 -4 8 -8 15 -10 15 -2 0
-4 -7 -4 -15z"/>
<path d="M16400 5526 c7 -7 13 -7 20 0 6 6 3 10 -10 10 -13 0 -16 -4 -10 -10z"/>
<path d="M16881 5504 c0 -11 3 -14 6 -6 3 7 2 16 -1 19 -3 4 -6 -2 -5 -13z"/>
<path d="M16316 5498 c3 -4 -8 -14 -23 -22 -15 -8 -24 -15 -19 -16 8 0 76 39
76 44 0 1 -9 2 -19 2 -11 0 -17 -4 -15 -8z"/>
<path d="M16908 5466 c3 -19 0 -26 -7 -22 -7 5 -9 1 -5 -9 6 -14 8 -14 20 2
15 20 19 47 5 38 -5 -3 -11 0 -14 7 -2 7 -2 0 1 -16z"/>
<path d="M16360 5480 c-9 -6 -10 -10 -3 -10 6 0 15 5 18 10 8 12 4 12 -15 0z"/>
<path d="M14950 5473 c0 -6 14 -43 30 -84 153 -371 481 -632 883 -704 139 -25
345 -17 478 19 53 14 249 87 436 163 l339 138 -40 100 c-33 80 -45 100 -61
100 -11 1 -22 -2 -25 -6 -3 -3 -36 -18 -75 -33 -38 -15 -77 -31 -87 -36 -23
-13 -181 -74 -193 -75 -5 0 -20 -6 -33 -13 -13 -8 -30 -11 -38 -8 -8 3 -13 2
-10 -3 3 -4 -14 -16 -37 -26 -23 -9 -62 -26 -86 -36 -24 -11 -52 -17 -65 -14
-17 5 -18 4 -6 -4 8 -6 11 -11 7 -11 -5 0 -50 -11 -101 -24 -50 -14 -101 -24
-111 -22 -11 2 -23 -2 -27 -7 -9 -15 -231 -21 -293 -9 -175 35 -247 58 -379
124 -108 53 -128 66 -121 78 3 4 -3 7 -13 6 -9 0 -16 4 -15 11 2 7 -3 10 -10
8 -6 -3 -25 7 -42 21 -16 14 -39 32 -50 40 -17 13 -18 16 -5 25 12 8 10 9 -7
4 -13 -3 -23 -3 -23 2 0 5 -19 29 -42 54 -82 87 -106 118 -100 123 3 3 0 6 -7
6 -8 0 -9 5 -1 19 13 25 13 41 -1 18 -11 -18 -29 -14 -29 6 0 7 4 6 10 -3 5
-8 10 -10 10 -5 0 6 -14 23 -30 39 -17 16 -30 25 -30 19z"/>
<path d="M15032 5460 c0 -14 2 -19 5 -12 2 6 2 18 0 25 -3 6 -5 1 -5 -13z"/>
<path d="M16142 5330 c0 -14 2 -19 5 -12 2 6 2 18 0 25 -3 6 -5 1 -5 -13z"/>
<path d="M16961 5324 c0 -11 3 -14 6 -6 3 7 2 16 -1 19 -3 4 -6 -2 -5 -13z"/>
<path d="M16967 5277 c-10 -26 -9 -29 5 -21 8 5 9 2 5 -9 -18 -44 -17 -49 2
-19 23 35 26 46 12 37 -5 -3 -11 3 -13 12 -3 17 -4 17 -11 0z"/>
<path d="M15463 5240 c0 -25 2 -35 4 -22 2 12 2 32 0 45 -2 12 -4 2 -4 -23z"/>
<path d="M17005 5239 c-4 -6 -5 -12 -2 -15 2 -3 7 2 10 11 7 17 1 20 -8 4z"/>
<path d="M15441 5184 c0 -11 3 -14 6 -6 3 7 2 16 -1 19 -3 4 -6 -2 -5 -13z"/>
<path d="M16828 5163 c7 -3 16 -2 19 1 4 3 -2 6 -13 5 -11 0 -14 -3 -6 -6z"/>
<path d="M15330 5116 c0 -2 7 -7 16 -10 8 -3 12 -2 9 4 -6 10 -25 14 -25 6z"/>
<path d="M15435 5030 c3 -5 8 -10 11 -10 2 0 4 5 4 10 0 6 -5 10 -11 10 -5 0
-7 -4 -4 -10z"/>
<path d="M16132 4940 c0 -14 2 -19 5 -12 2 6 2 18 0 25 -3 6 -5 1 -5 -13z"/>
<path d="M16150 4940 c0 -11 4 -22 10 -25 5 -3 7 0 4 9 -3 9 2 16 13 18 15 3
15 5 -4 10 -18 5 -23 2 -23 -12z"/>
<path d="M5360 4861 c-148 -47 -211 -189 -194 -435 l6 -99 -23 6 c-126 34
-303 34 -380 -1 -127 -56 -200 -217 -145 -321 17 -32 17 -33 -2 -47 -10 -7
-29 -37 -42 -66 -30 -69 -24 -151 15 -209 26 -40 26 -40 7 -67 -43 -62 -53
-136 -27 -200 17 -40 79 -110 108 -121 15 -6 19 -19 20 -67 3 -74 23 -106 90
-139 81 -39 165 -46 572 -50 l380 -3 -334 8 c-479 12 -591 27 -654 87 -33 32
-51 91 -38 125 16 44 35 51 109 44 56 -5 64 -4 47 7 -12 7 -55 12 -107 12 -75
0 -90 3 -118 23 -39 29 -69 93 -70 147 0 51 37 126 70 142 28 14 111 16 182 4
26 -4 45 -4 43 0 -10 15 -107 31 -172 27 -66 -3 -67 -3 -90 31 -28 41 -37 88
-29 145 10 64 42 105 101 128 61 24 195 35 249 19 48 -13 61 -6 20 10 -57 23
-164 23 -228 0 -56 -19 -60 -20 -72 -3 -70 90 -11 248 114 309 75 37 206 42
337 15 50 -11 91 -19 92 -18 1 0 -3 39 -9 86 -20 178 8 316 82 391 76 79 168
89 238 24 l37 -33 5 -154 c4 -117 10 -160 23 -185 41 -76 181 -153 354 -195
l93 -22 2 -360 c1 -249 4 -328 8 -256 4 58 8 223 9 367 l1 261 -52 12 c-160
36 -283 88 -347 146 -64 58 -74 90 -75 246 -1 122 -3 139 -22 165 -40 53 -125
83 -184 64z"/>
<path d="M6115 4365 l-25 -24 0 -674 c0 -650 1 -676 19 -698 19 -24 20 -24
236 -24 216 0 217 0 236 24 18 22 19 49 19 696 0 665 0 673 -21 699 l-20 26
-210 0 c-210 0 -210 0 -234 -25z m298 -165 c33 -26 43 -70 23 -108 -17 -33
-34 -42 -76 -42 -42 0 -59 9 -76 42 -29 57 13 128 76 128 15 0 39 -9 53 -20z"/>
<path d="M5867 3053 c18 -2 50 -2 70 0 21 2 7 4 -32 4 -38 0 -55 -2 -38 -4z"/>
<path d="M13321 2828 c1 -24 3 -27 6 -10 2 12 9 22 14 22 6 0 7 5 4 10 -13 21
-25 9 -24 -22z"/>
<path d="M13354 2829 c-3 -6 -3 -13 0 -16 3 -4 6 -1 6 5 0 6 7 9 15 6 8 -4 15
-4 15 -1 0 11 -30 16 -36 6z"/>
<path d="M13380 2800 c0 -5 4 -10 9 -10 6 0 13 5 16 10 3 6 -1 10 -9 10 -9 0
-16 -4 -16 -10z"/>
<path d="M11940 2790 c0 -5 7 -10 15 -10 8 0 15 5 15 10 0 6 -7 10 -15 10 -8
0 -15 -4 -15 -10z"/>
<path d="M12089 2763 c-13 -17 -13 -17 6 -3 11 8 22 16 24 17 2 2 0 3 -6 3 -6
0 -17 -8 -24 -17z"/>
<path d="M11892 2750 c-7 -11 -8 -20 -3 -20 5 0 11 -15 13 -32 l3 -33 6 37 c2
20 1 34 -3 32 -4 -3 -8 0 -8 5 0 6 5 11 10 11 6 0 10 5 10 10 0 17 -14 11 -28
-10z"/>
<path d="M12105 2744 c-19 -15 -22 -21 -9 -15 18 9 52 41 43 41 -2 0 -17 -12
-34 -26z"/>
<path d="M13500 2745 c59 -32 76 -32 25 0 -22 13 -47 24 -55 24 -8 0 5 -11 30
-24z"/>
<path d="M11871 2694 c0 -11 3 -14 6 -6 3 7 2 16 -1 19 -3 4 -6 -2 -5 -13z"/>
<path d="M13260 2683 c0 -6 -8 -10 -18 -8 -12 2 -18 -3 -18 -17 0 -17 2 -18
12 -3 11 14 12 14 18 -1 5 -12 10 -14 17 -7 8 8 8 16 0 30 -6 10 -11 13 -11 6z"/>
<path d="M12160 2666 c0 -9 5 -16 10 -16 6 0 10 4 10 9 0 6 -4 13 -10 16 -5 3
-10 -1 -10 -9z"/>
<path d="M13622 2665 c-7 -8 -9 -15 -5 -16 46 -6 74 -6 62 2 -8 5 -22 6 -31 3
-13 -4 -16 -1 -12 10 8 20 3 20 -14 1z"/>
<path d="M12270 2631 c5 -11 15 -23 21 -27 6 -3 3 5 -6 20 -20 30 -30 35 -15
7z"/>
<path d="M13600 2609 c0 -21 1 -22 24 -13 22 8 20 21 -4 27 -15 4 -20 0 -20
-14z"/>
<path d="M13705 2620 c3 -5 8 -10 11 -10 2 0 4 5 4 10 0 6 -5 10 -11 10 -5 0
-7 -4 -4 -10z"/>
<path d="M13179 2616 c-1 -3 -2 -12 -3 -18 -1 -7 -7 -12 -12 -11 -6 1 -11 -4
-11 -11 0 -23 40 -11 42 13 1 19 -13 42 -16 27z"/>
<path d="M12323 2560 c-2 -20 49 -70 70 -70 12 1 -21 30 -33 30 -3 0 -11 10
-19 21 -11 19 -11 21 3 16 22 -9 20 0 -2 12 -14 7 -18 6 -19 -9z"/>
<path d="M13260 2570 c0 -5 5 -10 10 -10 6 0 10 5 10 10 0 6 -4 10 -10 10 -5
0 -10 -4 -10 -10z"/>
<path d="M13686 2565 c-16 -12 -17 -17 -6 -30 12 -14 15 -13 37 6 12 13 23 27
23 33 0 6 -6 2 -12 -9 -10 -17 -12 -17 -17 -3 -5 14 -8 15 -25 3z m24 -21 c0
-8 -19 -13 -24 -6 -3 5 1 9 9 9 8 0 15 -2 15 -3z"/>
<path d="M13822 2562 c3 -15 -15 -42 -29 -42 -8 0 -11 5 -7 11 4 8 0 8 -15 0
-24 -13 -28 -23 -6 -15 8 4 15 1 15 -5 0 -17 12 -13 43 13 31 27 33 32 12 40
-8 3 -14 2 -13 -2z"/>
<path d="M13600 2540 c0 -5 5 -10 10 -10 6 0 10 5 10 10 0 6 -4 10 -10 10 -5
0 -10 -4 -10 -10z"/>
<path d="M13085 2530 c-3 -6 1 -7 9 -4 18 7 21 14 7 14 -6 0 -13 -4 -16 -10z"/>
<path d="M13875 2516 c11 -8 27 -16 35 -16 20 0 1 16 -30 25 -24 7 -24 7 -5
-9z"/>
<path d="M13090 2505 c-10 -12 -9 -16 4 -21 9 -4 20 -4 23 0 4 3 1 6 -5 6 -6
0 -9 7 -6 15 8 19 0 19 -16 0z"/>
<path d="M13626 2501 c-4 -7 -5 -15 -2 -18 9 -9 19 4 14 18 -4 11 -6 11 -12 0z"/>
<path d="M13020 2490 c-8 -5 -10 -10 -5 -10 6 0 17 5 25 10 8 5 11 10 5 10 -5
0 -17 -5 -25 -10z"/>
<path d="M13800 2490 c-9 -6 -10 -10 -3 -10 6 0 15 5 18 10 8 12 4 12 -15 0z"/>
<path d="M13930 2476 c7 -7 13 -7 20 0 6 6 3 10 -10 10 -13 0 -16 -4 -10 -10z"/>
<path d="M12480 2467 c0 -3 15 -10 32 -16 18 -6 28 -7 23 -2 -12 10 -55 25
-55 18z"/>
<path d="M13605 2459 c-4 -6 -5 -12 -2 -15 2 -3 7 2 10 11 7 17 1 20 -8 4z"/>
<path d="M12955 2450 c-3 -6 1 -7 9 -4 18 7 21 14 7 14 -6 0 -13 -4 -16 -10z"/>
<path d="M13700 2450 c0 -17 22 -22 36 -9 11 12 9 14 -11 15 -14 1 -25 -2 -25
-6z"/>
<path d="M13610 2425 c-7 -14 -10 -28 -7 -32 4 -3 7 -1 7 5 0 6 7 17 15 26 8
8 11 17 7 20 -5 3 -15 -6 -22 -19z"/>
<path d="M12926 2428 c3 -4 16 -8 30 -8 13 0 24 4 24 8 0 5 -13 9 -30 9 -16 0
-27 -4 -24 -9z"/>
<path d="M14005 2431 c-6 -11 13 -26 22 -17 4 3 0 6 -8 6 -11 0 -11 2 1 10 9
6 10 10 3 10 -6 0 -14 -4 -18 -9z"/>
<path d="M12588 2423 c6 -2 18 -2 25 0 6 3 1 5 -13 5 -14 0 -19 -2 -12 -5z"/>
<path d="M12648 2413 c6 -2 18 -2 25 0 6 3 1 5 -13 5 -14 0 -19 -2 -12 -5z"/>
<path d="M12843 2413 c9 -2 23 -2 30 0 6 3 -1 5 -18 5 -16 0 -22 -2 -12 -5z"/>
<path d="M13100 2410 c0 -5 5 -10 11 -10 5 0 7 5 4 10 -3 6 -8 10 -11 10 -2 0
-4 -4 -4 -10z"/>
<path d="M13960 2396 c0 -8 6 -17 13 -20 8 -3 6 -9 -7 -20 -11 -9 -15 -16 -9
-16 20 0 36 29 24 43 -6 8 -8 17 -4 20 3 4 1 7 -5 7 -7 0 -12 -6 -12 -14z"/>
<path d="M13526 2383 c-6 -14 -5 -15 5 -6 7 7 10 15 7 18 -3 3 -9 -2 -12 -12z"/>
<path d="M13998 2393 c7 -3 16 -2 19 1 4 3 -2 6 -13 5 -11 0 -14 -3 -6 -6z"/>
<path d="M13670 2363 c0 -21 3 -24 9 -14 5 8 7 20 4 28 -8 21 -13 15 -13 -14z"/>
<path d="M13547 2373 c-4 -3 -7 -11 -7 -17 0 -6 5 -5 12 2 6 6 9 14 7 17 -3 3
-9 2 -12 -2z"/>
<path d="M14047 2347 l-28 -22 46 -2 c30 0 45 3 42 11 -2 6 -14 10 -27 8 -19
-2 -21 0 -10 13 18 21 10 19 -23 -8z"/>
<path d="M14128 2363 c7 -3 16 -2 19 1 4 3 -2 6 -13 5 -11 0 -14 -3 -6 -6z"/>
<path d="M14154 2349 c-9 -16 2 -22 21 -11 15 8 16 10 1 15 -8 3 -18 2 -22 -4z"/>
<path d="M14180 2320 c0 -5 4 -10 9 -10 6 0 13 5 16 10 3 6 -1 10 -9 10 -9 0
-16 -4 -16 -10z"/>
<path d="M13996 2295 c-9 -9 -16 -21 -16 -26 0 -5 9 0 21 12 11 11 19 23 16
25 -3 3 -12 -2 -21 -11z"/>
<path d="M13667 2281 c4 -14 1 -26 -8 -32 -8 -5 -9 -9 -3 -9 6 0 17 7 24 16
11 12 10 18 -3 31 -15 15 -16 14 -10 -6z"/>
<path d="M14260 2291 c0 -8 50 -34 56 -29 1 2 -11 11 -27 20 -16 9 -29 14 -29
9z"/>
<path d="M13546 2277 c3 -10 9 -15 12 -12 3 3 0 11 -7 18 -10 9 -11 8 -5 -6z"/>
<path d="M13640 2269 c0 -5 5 -7 10 -4 6 3 10 8 10 11 0 2 -4 4 -10 4 -5 0
-10 -5 -10 -11z"/>
<path d="M13525 2250 c3 -5 8 -10 11 -10 2 0 4 5 4 10 0 6 -5 10 -11 10 -5 0
-7 -4 -4 -10z"/>
<path d="M14125 2250 c3 -5 10 -10 16 -10 5 0 9 5 9 10 0 6 -7 10 -16 10 -8 0
-12 -4 -9 -10z"/>
<path d="M14245 2250 c-3 -5 -2 -10 4 -10 5 0 13 5 16 10 3 6 2 10 -4 10 -5 0
-13 -4 -16 -10z"/>
<path d="M13880 2226 c7 -7 13 -7 20 0 6 6 3 10 -10 10 -13 0 -16 -4 -10 -10z"/>
<path d="M13960 2223 c0 -5 7 -18 15 -29 13 -18 14 -18 8 4 -5 22 -23 41 -23
25z"/>
<path d="M14390 2211 c0 -7 -4 -10 -9 -7 -5 4 -8 -2 -7 -11 2 -9 8 -18 15 -19
6 -1 7 0 1 3 -5 2 -8 9 -5 14 3 5 15 3 25 -3 15 -10 22 -10 32 0 11 11 9 12
-6 6 -13 -5 -23 -1 -32 11 -8 11 -14 13 -14 6z"/>
<path d="M14270 2200 c13 -9 13 -11 0 -20 -8 -5 -10 -10 -4 -10 6 0 17 6 23
14 9 11 8 15 -5 20 -24 9 -31 7 -14 -4z"/>
<path d="M13956 2163 c-6 -14 -5 -15 5 -6 7 7 10 15 7 18 -3 3 -9 -2 -12 -12z"/>
<path d="M14483 2165 c0 -7 6 -11 14 -8 7 3 13 6 13 8 0 2 -6 5 -13 8 -8 3
-14 -1 -14 -8z"/>
<path d="M13782 2161 c4 -13 18 -16 19 -4 0 4 -5 9 -11 12 -7 2 -11 -2 -8 -8z"/>
<path d="M14325 2139 c-11 -17 1 -21 15 -4 8 9 8 15 2 15 -6 0 -14 -5 -17 -11z"/>
<path d="M13940 2111 c-14 -28 -13 -31 15 -31 16 0 25 6 25 16 0 10 -6 14 -14
11 -10 -4 -13 -1 -9 9 8 21 -5 17 -17 -5z"/>
<path d="M14280 2099 c0 -5 -6 -7 -12 -3 -8 5 -8 1 2 -12 22 -29 24 -30 16
-10 -5 14 -3 17 10 12 14 -5 15 -4 4 9 -15 18 -20 19 -20 4z"/>
<path d="M14175 2080 c-3 -5 -1 -10 4 -10 6 0 11 5 11 10 0 6 -2 10 -4 10 -3
0 -8 -4 -11 -10z"/>
<path d="M14082 2040 c0 -14 2 -19 5 -12 2 6 2 18 0 25 -3 6 -5 1 -5 -13z"/>
<path d="M14300 2026 c0 -14 4 -27 8 -30 5 -3 6 8 4 25 -5 35 -12 38 -12 5z"/>
<path d="M14695 2013 c-24 -11 -25 -13 -5 -8 14 4 33 7 43 6 20 0 22 5 5 11
-7 3 -26 -1 -43 -9z"/>
<path d="M14117 1989 c-12 -13 -16 -27 -11 -37 6 -16 7 -15 11 1 3 9 8 15 13
12 4 -3 7 6 6 20 0 14 -1 25 -1 25 0 0 -9 -9 -18 -21z"/>
<path d="M14800 1986 c0 -2 8 -10 18 -17 15 -13 16 -12 3 4 -13 16 -21 21 -21
13z"/>
<path d="M14290 1970 c0 -5 5 -10 10 -10 6 0 10 5 10 10 0 6 -4 10 -10 10 -5
0 -10 -4 -10 -10z"/>
<path d="M14725 1960 c3 -5 8 -10 11 -10 2 0 4 5 4 10 0 6 -5 10 -11 10 -5 0
-7 -4 -4 -10z"/>
<path d="M11832 1935 c0 -16 2 -22 5 -12 2 9 2 23 0 30 -3 6 -5 -1 -5 -18z"/>
<path d="M14081 1944 c0 -11 3 -14 6 -6 3 7 2 16 -1 19 -3 4 -6 -2 -5 -13z"/>
<path d="M14807 1949 c7 -7 15 -10 18 -7 3 3 -2 9 -12 12 -14 6 -15 5 -6 -5z"/>
<path d="M14147 1939 c7 -7 15 -10 18 -7 3 3 -2 9 -12 12 -14 6 -15 5 -6 -5z"/>
<path d="M14238 1933 c7 -3 16 -2 19 1 4 3 -2 6 -13 5 -11 0 -14 -3 -6 -6z"/>
<path d="M14828 1923 c7 -3 16 -2 19 1 4 3 -2 6 -13 5 -11 0 -14 -3 -6 -6z"/>
<path d="M14880 1904 c0 -8 5 -12 10 -9 6 4 8 11 5 16 -9 14 -15 11 -15 -7z"/>
<path d="M14940 1880 c-17 -4 -21 -8 -12 -14 7 -4 10 -12 7 -17 -7 -10 -3 -11
19 -3 9 3 12 12 8 22 -5 15 -4 15 11 3 9 -7 17 -9 17 -3 0 14 -21 20 -50 12z"/>
<path d="M15000 1856 c0 -2 7 -7 16 -10 8 -3 12 -2 9 4 -6 10 -25 14 -25 6z"/>
<path d="M15037 1833 c-7 -7 3 -33 13 -33 14 0 19 28 5 33 -7 3 -15 3 -18 0z"/>
<path d="M15090 1783 c8 -3 20 -10 26 -15 7 -5 14 -4 17 4 3 9 -6 14 -27 15
-17 0 -24 -1 -16 -4z"/>
<path d="M11805 1759 c-5 -8 -4 -10 3 -5 8 5 12 -1 13 -16 1 -18 2 -19 6 -4 6
23 -12 43 -22 25z"/>
<path d="M15220 1726 c0 -2 8 -10 18 -17 15 -13 16 -12 3 4 -13 16 -21 21 -21
13z"/>
<path d="M15250 1690 c-12 -8 -9 -10 10 -8 16 2 24 -2 22 -10 -1 -8 2 -11 8
-7 8 5 7 11 -1 21 -14 16 -19 17 -39 4z"/>
<path d="M15200 1645 c0 -8 5 -15 10 -15 6 0 10 7 10 15 0 8 -4 15 -10 15 -5
0 -10 -7 -10 -15z"/>
<path d="M15300 1650 c-9 -6 -10 -10 -3 -10 6 0 15 5 18 10 8 12 4 12 -15 0z"/>
<path d="M15359 1617 c6 -8 7 -18 3 -22 -4 -5 -1 -5 6 -1 10 6 10 11 1 22 -6
8 -14 14 -16 14 -3 0 0 -6 6 -13z"/>
<path d="M11796 1605 c-3 -9 -6 -22 -5 -28 0 -7 5 -1 10 12 5 13 8 26 5 28 -2
2 -6 -3 -10 -12z"/>
<path d="M11821 1584 c0 -11 3 -14 6 -6 3 7 2 16 -1 19 -3 4 -6 -2 -5 -13z"/>
<path d="M15376 1573 c-6 -14 -5 -15 5 -6 7 7 10 15 7 18 -3 3 -9 -2 -12 -12z"/>
<path d="M15402 1549 c-10 -15 -8 -20 9 -30 29 -15 41 1 20 27 -17 21 -18 21
-29 3z"/>
<path d="M15446 1485 c-6 -17 2 -45 14 -45 5 0 6 10 3 23 -5 22 -5 22 11 2 16
-19 16 -19 5 8 -14 30 -24 34 -33 12z"/>
<path d="M11800 1433 c0 -7 -6 -12 -12 -10 -10 1 -14 -34 -16 -145 l-3 -148
1843 -2 1843 -3 22 25 c37 41 57 91 61 155 6 100 16 96 -263 96 -132 0 -232 3
-223 7 9 4 -715 9 -1610 11 -1205 2 -1629 6 -1634 15 -6 8 -8 8 -8 -1z"/>
<path d="M14298 1423 c7 -3 16 -2 19 1 4 3 -2 6 -13 5 -11 0 -14 -3 -6 -6z"/>
</g>
</svg>
